<?xml version="1.0" standalone="no"?>
<!DOCTYPE svg PUBLIC "-//W3C//DTD SVG 20010904//EN"
 "http://www.w3.org/TR/2001/REC-SVG-20010904/DTD/svg10.dtd">
<svg version="1.0" xmlns="http://www.w3.org/2000/svg"
 width="1736.000000pt" height="1736.000000pt" viewBox="0 0 1736.000000 1736.000000"
 preserveAspectRatio="xMidYMid meet">
<metadata>
Created by potrace 1.15, written by Peter Selinger 2001-2017
</metadata>
<g transform="translate(0.000000,1736.000000) scale(0.100000,-0.100000)"
fill="#fffff" stroke="none">
<path d="M5195 16599 c-20 -3 -74 -7 -119 -8 -467 -11 -430 -8 -534 -41 -62
-19 -77 -20 -103 -10 -25 11 -41 10 -92 -3 -34 -9 -78 -19 -97 -22 -41 -8
-162 -63 -172 -79 -4 -6 -8 -8 -8 -4 0 4 -19 -3 -42 -15 -24 -12 -61 -29 -83
-37 -22 -8 -64 -27 -92 -41 -29 -14 -54 -22 -55 -18 -5 15 -108 -57 -146 -101
-20 -25 -53 -60 -72 -80 -19 -19 -34 -38 -33 -41 1 -4 -19 -9 -45 -11 -26 -3
-82 -21 -124 -41 -56 -27 -91 -37 -125 -37 -26 0 -61 -7 -77 -15 -16 -9 -60
-22 -98 -31 -37 -9 -68 -19 -68 -23 0 -3 -12 -12 -27 -18 -16 -7 -35 -17 -43
-22 -43 -29 -175 -81 -204 -81 -19 0 -44 -8 -57 -19 -20 -16 -23 -27 -22 -92
1 -90 14 -126 50 -139 16 -6 37 -15 48 -22 11 -6 52 -13 90 -15 39 -1 80 -5
92 -8 34 -8 73 14 136 77 31 32 61 58 65 58 4 0 21 12 37 26 71 62 161 112
242 133 22 6 79 29 127 51 76 36 96 41 178 45 170 8 252 22 340 59 21 9 39 16
40 15 2 0 16 6 32 15 16 8 33 13 38 10 4 -3 8 0 8 5 0 6 12 11 28 11 15 0 41
7 57 16 17 8 57 18 90 20 33 3 77 9 98 15 20 5 41 7 46 4 13 -7 141 34 141 45
0 6 10 10 23 10 13 0 28 5 33 10 6 6 21 12 35 15 48 9 184 43 214 55 11 4 30
6 42 5 12 -1 20 2 18 6 -3 4 5 7 18 7 12 0 86 7 165 16 161 17 285 21 322 12
14 -4 59 -1 100 6 49 9 106 11 165 6 50 -4 140 -9 202 -11 61 -3 115 -7 120
-10 4 -2 17 -1 28 3 17 6 63 -4 115 -27 8 -3 19 -7 23 -7 4 -1 11 -6 15 -12 4
-8 56 -14 137 -17 161 -7 254 -17 261 -28 3 -5 18 -9 34 -9 39 0 196 -52 267
-88 32 -16 74 -35 93 -42 19 -7 44 -21 55 -31 11 -10 34 -21 50 -25 17 -4 47
-16 67 -26 20 -11 52 -21 70 -23 18 -2 54 -6 79 -9 39 -6 55 -1 114 29 82 42
137 46 215 17 30 -11 69 -25 85 -31 28 -11 298 -90 320 -95 12 -2 67 -23 110
-41 82 -35 104 -43 109 -37 3 3 6 1 6 -5 0 -5 19 -16 43 -23 23 -7 60 -22 82
-33 22 -12 45 -20 52 -19 6 2 14 -2 18 -8 3 -5 14 -10 24 -10 10 0 24 -7 31
-15 7 -9 20 -13 28 -10 9 3 18 2 21 -3 7 -10 92 -51 169 -81 28 -11 75 -36
104 -55 29 -19 82 -44 118 -57 36 -12 70 -27 75 -33 17 -20 108 -72 147 -85
20 -7 64 -30 98 -52 33 -21 65 -39 70 -39 6 0 10 -4 10 -8 0 -5 16 -17 35 -28
19 -10 35 -22 35 -26 0 -5 6 -8 14 -8 8 0 35 -16 60 -35 26 -19 51 -35 56 -35
6 0 10 -5 10 -11 0 -5 15 -17 33 -25 17 -8 44 -22 58 -32 56 -36 85 -57 97
-69 7 -7 24 -16 37 -19 13 -3 26 -12 29 -20 3 -8 11 -14 19 -14 16 0 79 -45
72 -52 -3 -2 7 -11 23 -19 15 -8 30 -19 35 -26 4 -6 23 -17 42 -23 19 -6 35
-15 35 -19 0 -4 19 -8 42 -9 79 -3 105 60 47 117 -17 17 -37 31 -45 31 -8 0
-31 15 -51 34 -21 18 -58 45 -81 60 -24 15 -58 43 -74 62 -17 19 -44 42 -60
50 -16 8 -26 19 -23 24 4 6 -2 7 -12 3 -10 -3 -15 -3 -11 1 9 10 -65 71 -112
92 -19 9 -55 36 -79 60 -38 39 -116 84 -143 84 -5 0 -14 5 -21 10 -7 6 -28 24
-47 40 -19 16 -43 30 -52 30 -9 0 -19 4 -23 10 -3 5 -13 6 -22 3 -10 -4 -14
-2 -10 4 4 6 -13 16 -41 23 -30 8 -59 25 -82 49 -34 35 -60 54 -90 68 -53 23
-117 54 -130 63 -22 15 -204 100 -213 100 -5 0 -21 8 -35 18 -15 10 -47 24
-71 31 -24 7 -61 24 -82 37 -21 13 -44 24 -50 24 -6 0 -28 9 -48 20 -42 23
-161 69 -241 95 -30 9 -75 26 -99 37 -25 11 -60 22 -78 25 -18 3 -44 16 -56
29 -12 13 -31 24 -42 24 -43 0 -210 49 -221 64 -6 9 -14 16 -18 16 -4 0 -14 6
-21 14 -8 7 -33 16 -57 20 -55 9 -124 32 -151 51 -12 8 -32 15 -45 15 -13 0
-38 6 -55 14 -73 32 -169 60 -277 82 -63 13 -137 29 -165 35 -27 6 -65 12 -83
14 -18 2 -44 11 -58 20 -17 11 -55 18 -114 21 -49 2 -101 9 -115 14 -14 5 -25
7 -25 4 0 -4 -6 -2 -12 4 -35 27 -407 72 -638 77 -107 2 -207 4 -222 4 -16 0
-28 4 -28 8 0 11 -192 18 -280 10 -25 -2 -49 -1 -55 2 -13 8 -113 8 -160 0z"/>
<path d="M12195 15799 c-76 -14 -185 -30 -235 -34 -25 -2 -58 -7 -75 -10 -47
-11 -66 -14 -135 -26 -36 -5 -74 -12 -85 -15 -11 -2 -36 -7 -55 -10 -19 -4
-47 -15 -62 -26 -16 -11 -28 -17 -28 -14 0 4 -17 -1 -37 -10 -21 -9 -45 -17
-53 -19 -17 -2 -71 -27 -110 -50 -28 -17 -82 -39 -91 -37 -3 1 -19 -12 -34
-28 -16 -17 -34 -30 -41 -30 -13 0 -28 -27 -26 -50 1 -10 0 -11 -4 -2 -8 17
-24 15 -24 -4 0 -8 -15 -30 -32 -49 -18 -18 -62 -70 -98 -115 -36 -46 -87
-103 -114 -129 -27 -25 -54 -52 -60 -59 -6 -7 -20 -21 -30 -30 -48 -43 -56
-54 -56 -77 0 -14 -5 -25 -10 -25 -6 0 -10 -6 -9 -12 2 -7 -3 -46 -10 -87 -9
-51 -10 -80 -3 -95 5 -11 19 -41 31 -66 26 -57 44 -80 63 -80 9 0 21 -7 28
-15 9 -11 33 -15 92 -15 72 0 84 3 126 31 26 17 68 53 93 79 39 41 48 58 58
112 14 71 32 118 45 118 4 0 6 7 3 14 -4 10 -1 13 9 9 7 -3 14 -1 14 5 0 10
159 92 179 92 19 0 89 54 106 83 26 44 71 86 99 93 15 3 29 10 32 15 3 5 12 9
20 9 8 0 12 -4 9 -10 -3 -5 0 -10 8 -10 8 0 17 6 20 14 3 7 19 16 35 19 16 3
38 14 48 24 9 10 40 32 68 50 28 18 56 36 61 40 6 4 43 19 83 32 39 13 72 27
72 31 0 4 10 10 23 13 12 3 57 15 101 26 43 12 86 21 96 21 9 0 32 7 50 16 18
9 52 17 76 18 25 1 52 8 64 19 11 9 24 17 29 17 5 0 19 12 30 26 22 29 21 70
-4 132 -17 38 -41 49 -132 58 -38 4 -73 10 -78 15 -18 14 -87 18 -140 8z"/>
<path d="M5296 15763 c-7 -7 -324 -84 -348 -85 -16 -1 -28 -5 -28 -11 0 -6 -5
-6 -12 0 -21 17 -178 -7 -178 -27 0 -4 -6 -7 -12 -7 -12 1 -57 -12 -239 -68
-41 -13 -88 -26 -105 -29 -16 -3 -47 -14 -69 -25 -22 -10 -80 -32 -130 -49
-101 -35 -155 -35 -235 -1 -25 10 -63 21 -85 23 -22 3 -54 8 -70 11 -40 9
-146 -19 -196 -51 -21 -13 -50 -24 -63 -24 -22 0 -93 -27 -106 -40 -3 -3 -31
-18 -62 -35 -32 -16 -58 -33 -58 -38 0 -5 -9 -7 -19 -4 -25 6 -64 -18 -128
-79 -56 -54 -75 -71 -113 -97 -72 -50 -235 -206 -280 -269 -17 -24 -33 -41
-34 -38 -2 3 -48 -40 -104 -95 -55 -54 -99 -102 -97 -106 3 -3 -6 -11 -18 -18
-12 -7 -33 -30 -47 -53 -27 -44 -86 -107 -142 -152 -19 -15 -43 -42 -53 -58
-19 -33 -95 -108 -108 -108 -8 0 -82 -73 -138 -136 -14 -16 -40 -40 -57 -53
-18 -13 -32 -30 -32 -38 0 -8 -4 -12 -8 -9 -5 3 -24 -13 -43 -36 -19 -22 -67
-74 -107 -116 -40 -41 -71 -77 -68 -79 4 -4 -139 -159 -172 -187 -48 -41 -171
-192 -177 -219 -4 -15 -11 -27 -15 -27 -4 0 -17 -20 -29 -44 -11 -25 -25 -47
-31 -51 -5 -3 -10 -15 -10 -25 0 -11 -9 -39 -19 -62 -11 -24 -26 -58 -33 -75
-7 -18 -16 -33 -20 -33 -5 0 -8 -9 -8 -19 0 -11 -4 -22 -9 -25 -4 -3 -11 -20
-15 -37 -6 -30 -64 -158 -76 -169 -9 -7 -28 -63 -28 -80 0 -8 -7 -40 -16 -70
-8 -30 -19 -68 -23 -85 -5 -16 -8 -91 -6 -165 1 -74 -2 -163 -8 -197 -10 -56
-9 -67 9 -105 12 -24 24 -61 28 -83 3 -22 17 -61 30 -87 13 -26 26 -65 30 -85
7 -44 29 -83 46 -83 7 0 29 12 50 26 l38 27 -6 71 c-3 39 -6 91 -6 116 0 49
26 156 43 177 6 7 13 41 15 75 5 80 42 256 87 413 20 71 137 300 205 403 70
107 96 147 122 192 35 61 44 73 73 98 15 14 25 27 22 30 -2 3 4 12 15 19 11 8
19 21 18 28 -2 8 0 14 4 14 4 1 38 33 75 72 38 40 85 88 107 108 80 75 236
242 236 253 0 5 7 8 16 8 8 0 12 5 9 10 -3 6 -2 10 2 10 5 0 36 26 70 58 33
31 80 74 104 95 24 20 66 57 93 82 27 25 51 43 53 41 2 -2 16 8 31 23 58 55
102 91 112 91 5 0 10 5 10 10 0 6 11 15 25 20 14 5 25 14 25 20 0 5 6 10 14
10 8 0 36 17 63 38 26 20 65 46 86 57 20 11 37 23 37 27 0 5 4 7 8 6 12 -4
112 75 112 88 0 7 14 17 30 23 17 5 30 15 30 21 0 6 4 9 9 5 5 -3 12 -1 15 4
3 5 17 12 31 15 14 4 47 22 74 41 27 19 53 35 60 35 6 0 11 4 11 8 0 4 41 27
90 51 50 23 90 47 90 51 0 5 10 12 23 15 12 4 45 24 72 45 28 20 65 43 82 50
18 7 30 17 26 23 -3 5 -2 7 4 4 19 -12 179 53 271 111 29 18 63 35 74 37 12 3
42 14 66 25 24 12 58 24 75 27 18 3 35 12 39 19 5 7 17 10 28 7 11 -3 26 -1
33 5 6 5 28 12 47 16 19 3 61 20 94 36 58 29 81 38 186 66 30 8 94 30 143 50
48 19 92 32 97 29 5 -3 18 -2 28 4 10 5 38 12 62 16 25 3 72 15 105 25 76 23
262 68 338 80 32 5 91 25 132 45 41 20 80 38 87 39 53 11 88 41 88 76 0 21 -8
31 -33 43 -36 17 -111 23 -170 12 -36 -6 -97 8 -162 37 -17 7 -92 8 -99 1z"/>
<path d="M12475 15150 c-5 -8 -110 -25 -137 -21 -9 1 -27 -5 -40 -13 -13 -8
-50 -21 -83 -30 -33 -8 -84 -27 -113 -41 -29 -14 -74 -33 -100 -41 -26 -9 -58
-26 -72 -39 -14 -12 -38 -30 -53 -40 -43 -27 -64 -83 -70 -183 -2 -46 1 -57
28 -90 34 -42 37 -47 65 -83 26 -35 88 -67 144 -74 34 -5 54 -1 85 15 23 11
41 18 41 14 0 -3 17 8 39 25 21 17 41 28 45 24 3 -3 6 -1 6 6 0 13 24 41 36
41 7 0 86 63 116 93 10 9 24 17 32 17 7 0 49 12 92 26 44 14 107 30 141 35 71
10 119 35 152 80 32 43 23 101 -24 152 -20 21 -33 43 -30 48 4 5 0 9 -8 9 -8
0 -27 11 -43 25 -16 14 -33 24 -39 23 -5 -1 -19 3 -31 9 -24 14 -172 24 -179
13z"/>
<path d="M13233 14751 c-26 -8 -50 -17 -53 -20 -3 -4 -9 -6 -15 -6 -27 -1 -80
-19 -93 -31 -7 -8 -20 -14 -28 -14 -8 0 -14 -4 -14 -8 0 -17 -104 -33 -219
-34 -67 0 -121 -4 -121 -7 0 -4 -15 -15 -34 -25 -18 -10 -39 -28 -46 -41 -17
-31 -19 -177 -2 -183 6 -2 12 -10 12 -19 0 -18 69 -85 81 -78 10 7 89 -27 89
-37 0 -5 5 -8 11 -8 7 0 27 -16 46 -35 19 -20 38 -33 44 -30 5 4 6 -2 2 -11
-5 -13 -3 -16 9 -11 9 3 24 -1 35 -8 21 -16 93 -19 140 -6 28 8 111 65 154
106 9 8 21 15 27 15 7 0 12 5 12 10 0 6 7 10 16 10 11 0 14 5 10 16 -4 11 -2
15 8 11 7 -3 22 2 33 11 10 9 25 18 33 20 8 1 27 16 42 32 16 17 30 29 33 28
3 -2 21 9 40 25 19 15 46 32 60 37 14 5 25 17 25 25 0 9 7 29 15 44 13 26 13
33 -2 62 -9 19 -19 36 -23 39 -4 3 -9 13 -13 22 -6 18 -78 68 -97 68 -6 0 -22
8 -37 17 -38 25 -123 32 -180 14z"/>
<path d="M14042 14465 c-22 -10 -31 -19 -26 -27 4 -7 4 -10 -1 -6 -12 11 -60
-18 -113 -70 -76 -73 -113 -102 -132 -102 -10 0 -21 -7 -24 -16 -4 -9 -9 -14
-12 -11 -3 3 -20 -10 -37 -29 -18 -19 -38 -34 -46 -34 -18 0 -63 -49 -56 -61
3 -5 0 -6 -7 -4 -8 3 -21 -8 -31 -25 -10 -16 -25 -30 -33 -30 -8 0 -14 -5 -14
-11 0 -5 -4 -8 -9 -4 -5 3 -12 -3 -15 -12 -4 -10 -21 -29 -40 -43 -34 -25 -80
-108 -81 -147 -1 -12 -4 -25 -8 -29 -3 -4 0 -22 8 -40 8 -19 11 -34 7 -34 -3
0 -1 -5 6 -12 7 -7 12 -20 12 -30 0 -33 23 -66 65 -97 23 -17 45 -27 49 -23 4
3 4 -2 0 -12 -5 -14 -4 -17 5 -12 14 9 54 -31 45 -45 -3 -5 -1 -26 5 -46 5
-21 12 -50 15 -65 8 -34 116 -120 172 -136 50 -15 111 -16 119 -2 3 6 13 10
22 10 13 0 43 21 105 74 12 10 17 29 16 63 0 26 9 75 20 107 14 42 18 67 11
83 -5 14 -5 23 1 23 6 0 10 9 10 20 0 11 5 20 11 20 6 0 8 7 5 16 -3 8 -2 12
4 9 6 -3 10 -1 10 5 0 10 7 20 36 53 6 7 9 18 6 26 -2 7 7 23 21 35 14 11 27
30 29 41 4 23 45 65 65 65 7 0 17 8 20 18 4 9 15 26 25 36 10 11 18 26 18 33
0 7 5 13 10 13 6 0 22 12 36 27 14 15 35 28 47 30 11 2 24 8 28 14 3 6 8 9 10
8 7 -5 108 75 108 86 1 6 13 18 29 27 25 15 46 32 125 104 31 29 36 70 10 77
-10 3 -63 6 -117 6 -84 2 -104 5 -129 23 -22 16 -48 23 -96 25 -96 4 -140 12
-165 29 -35 22 -115 27 -154 9z"/>
<path d="M15060 14080 c-14 -4 -38 -8 -54 -9 -16 -1 -44 -12 -63 -27 -18 -14
-33 -22 -33 -19 0 4 -13 -3 -29 -14 -16 -12 -33 -21 -39 -21 -5 0 -15 -6 -21
-14 -10 -12 -119 -32 -149 -27 -8 1 -16 -7 -19 -18 -3 -12 -10 -18 -15 -15 -5
4 -26 -10 -46 -30 -61 -59 -82 -76 -92 -76 -5 0 -7 -6 -4 -14 4 -10 -1 -14
-13 -13 -30 2 -107 -54 -139 -100 -16 -24 -34 -43 -41 -43 -7 0 -10 -7 -6 -17
4 -10 2 -14 -5 -9 -12 7 -38 -31 -28 -41 3 -4 2 -11 -3 -17 -5 -6 -6 -30 -1
-55 4 -24 4 -58 -1 -74 -6 -20 -5 -33 2 -37 5 -4 13 -19 17 -35 5 -16 21 -35
37 -44 50 -27 115 -75 115 -86 0 -5 -9 -23 -20 -40 -11 -16 -20 -38 -20 -47 0
-10 -4 -18 -10 -18 -5 0 -10 -4 -10 -10 0 -5 -9 -19 -19 -29 -20 -20 -46 -95
-42 -118 1 -7 -4 -13 -11 -13 -10 0 -9 -3 1 -9 11 -7 12 -13 4 -23 -15 -18
-10 -161 6 -179 6 -8 18 -22 25 -33 14 -20 68 -26 74 -8 2 6 10 8 18 5 8 -3
26 3 42 13 15 10 32 19 37 19 6 0 11 6 11 13 1 6 2 17 3 23 0 5 6 7 11 4 6 -4
8 -11 5 -16 -3 -5 0 -7 7 -4 16 6 16 -62 -1 -93 -14 -26 -14 -42 0 -22 9 12 9
11 4 -5 -33 -92 -45 -120 -62 -143 -39 -55 -55 -111 -46 -171 4 -31 7 -63 5
-71 -3 -23 -13 -120 -16 -170 -13 -182 -19 -228 -32 -247 -9 -14 -10 -23 -4
-23 6 0 9 -4 6 -8 -3 -5 0 -27 6 -51 7 -29 8 -45 0 -53 -6 -6 -7 -21 -2 -38 5
-18 4 -32 -3 -39 -16 -16 -16 -123 0 -139 10 -10 10 -19 2 -34 -8 -14 -8 -23
0 -31 14 -14 14 -30 1 -22 -10 6 -7 -20 5 -62 2 -6 -3 -14 -11 -17 -15 -6 -15
-61 1 -86 5 -8 4 -11 -2 -7 -7 5 -10 -31 -9 -107 1 -82 -3 -117 -13 -129 -7
-9 -15 -34 -16 -54 -4 -50 -44 -216 -55 -227 -5 -5 -6 -30 -3 -56 3 -26 1 -56
-5 -67 -8 -15 -8 -23 1 -33 8 -9 8 -11 1 -7 -11 7 -29 -19 -25 -36 0 -4 -7
-17 -18 -28 -10 -11 -21 -33 -24 -47 -12 -60 -37 -135 -61 -183 -14 -28 -26
-57 -26 -65 0 -8 -5 -14 -11 -14 -6 0 -8 -8 -4 -19 4 -14 0 -21 -16 -26 -16
-6 -20 -13 -17 -36 3 -16 0 -31 -6 -33 -7 -3 -5 -9 4 -15 13 -9 13 -11 -2 -11
-13 0 -18 -8 -18 -31 0 -27 -24 -80 -66 -144 -8 -13 -17 -31 -18 -40 -1 -9
-16 -30 -32 -48 -23 -25 -29 -41 -29 -74 1 -25 -3 -39 -9 -36 -5 4 -7 -1 -3
-10 4 -11 -3 -18 -24 -26 -17 -6 -33 -20 -36 -31 -5 -19 -7 -19 -29 7 -13 15
-26 47 -30 71 -9 58 -45 160 -73 205 -12 20 -20 41 -17 46 3 5 -1 14 -9 21 -8
7 -18 30 -22 52 -3 22 -12 42 -19 45 -8 3 -14 13 -14 23 0 11 -4 22 -10 25 -5
3 -10 17 -10 30 0 13 -4 27 -10 30 -5 3 -10 11 -10 16 0 6 5 7 11 3 8 -5 8 -1
0 13 -5 11 -12 33 -15 48 -3 16 -9 31 -13 34 -10 8 -15 37 -14 79 1 18 -3 31
-8 28 -5 -3 -7 3 -4 14 3 12 -1 22 -11 26 -9 3 -16 14 -16 24 0 10 -10 31 -23
47 -31 38 -44 71 -52 129 -4 27 -14 59 -21 72 -8 12 -12 27 -9 32 3 6 1 10 -4
10 -6 0 -11 7 -11 16 0 9 -5 12 -12 8 -6 -4 -8 -3 -5 3 8 13 -30 86 -87 166
-26 37 -45 71 -42 76 3 5 -1 14 -9 21 -8 7 -15 21 -15 31 0 18 -37 89 -53 100
-4 3 -9 13 -11 22 -1 9 -9 24 -17 34 -8 10 -23 34 -34 53 -10 19 -41 58 -68
85 -26 28 -57 67 -68 88 -11 21 -26 40 -34 43 -8 3 -17 19 -20 36 -4 16 -13
32 -21 35 -8 3 -14 11 -14 18 0 17 -69 91 -82 87 -5 -1 -7 1 -4 6 9 14 -83
127 -104 127 -3 0 -19 10 -37 23 -17 12 -35 22 -40 22 -6 0 -18 9 -27 19 -10
11 -25 17 -34 14 -9 -4 -13 -2 -9 4 8 12 -20 26 -34 17 -5 -3 -9 0 -9 5 0 6
-15 11 -32 11 -44 0 -108 -18 -108 -31 0 -20 -42 13 -52 42 -5 16 -15 29 -20
29 -6 0 -21 11 -34 25 -13 14 -26 25 -30 25 -4 0 -22 18 -41 40 -19 22 -41 40
-49 40 -8 0 -14 8 -14 17 0 9 -3 14 -6 10 -10 -9 -83 59 -85 78 0 5 -30 32
-67 60 -37 27 -99 81 -137 120 -84 83 -141 130 -187 151 -18 8 -44 22 -58 29
-48 28 -176 13 -202 -24 -24 -34 -42 -39 -193 -57 -27 -3 -56 -6 -63 -7 -8 0
-24 -16 -37 -35 -22 -32 -22 -35 -7 -63 10 -16 22 -29 28 -29 7 0 14 -9 17
-21 3 -12 10 -18 16 -15 6 4 20 2 32 -4 19 -11 243 -41 315 -43 22 0 30 -5 27
-14 -3 -8 3 -13 16 -13 29 0 108 -49 161 -99 8 -8 39 -26 69 -39 35 -16 83
-53 130 -98 68 -67 75 -72 88 -56 12 16 13 16 7 0 -3 -10 -2 -18 3 -18 14 0
63 -40 126 -102 32 -32 62 -58 68 -58 5 0 9 -4 9 -10 0 -5 6 -10 14 -10 8 0
28 -13 46 -30 18 -16 36 -30 41 -30 5 0 9 -5 9 -11 0 -6 9 -9 20 -6 15 4 20 0
20 -14 0 -10 6 -19 14 -19 14 0 31 -17 139 -132 30 -32 59 -58 64 -58 6 0 28
-18 49 -40 22 -22 45 -38 52 -35 7 3 10 1 7 -5 -3 -5 10 -24 29 -43 18 -19 41
-50 51 -70 9 -21 21 -37 26 -37 5 0 9 -6 9 -14 0 -8 13 -28 30 -44 16 -16 26
-33 22 -37 -4 -5 1 -5 11 -2 12 5 17 1 17 -11 0 -10 14 -31 30 -47 17 -16 30
-35 30 -42 0 -7 6 -10 17 -6 11 4 14 3 9 -6 -5 -7 1 -19 13 -30 12 -10 21 -23
21 -28 0 -15 24 -63 33 -63 4 0 7 -9 7 -19 0 -11 4 -23 10 -26 11 -7 70 -128
70 -145 0 -6 7 -18 15 -27 8 -8 13 -19 10 -24 -4 -5 1 -9 9 -9 10 0 16 -9 16
-22 0 -12 3 -18 7 -15 8 9 35 -52 28 -63 -3 -5 -1 -11 5 -15 6 -4 8 -11 5 -16
-4 -5 -3 -15 1 -21 5 -7 9 -19 10 -28 3 -29 47 -155 59 -170 7 -8 19 -34 26
-57 7 -24 15 -43 18 -43 3 0 7 -12 7 -27 1 -16 5 -41 8 -58 4 -16 9 -43 11
-59 2 -16 7 -31 12 -35 4 -3 9 -13 10 -21 1 -8 7 -33 12 -55 11 -42 21 -113
25 -180 3 -54 17 -115 25 -115 4 0 18 -30 31 -67 12 -38 36 -92 52 -121 15
-30 26 -58 23 -63 -7 -11 44 -81 55 -74 4 2 16 -4 27 -15 20 -18 97 -25 86 -7
-2 4 13 7 33 7 21 0 34 -3 31 -6 -3 -4 4 -15 18 -25 13 -11 27 -34 30 -52 4
-17 16 -42 27 -53 14 -16 16 -24 8 -29 -11 -7 6 -21 50 -41 8 -4 23 -14 32
-22 10 -8 27 -12 39 -9 46 12 150 -107 151 -174 0 -19 3 -38 6 -44 8 -13 11
-36 17 -130 3 -44 8 -86 10 -93 3 -7 0 -10 -5 -7 -17 10 -9 -137 8 -157 9 -10
11 -18 4 -18 -6 0 -12 6 -15 13 -2 6 -4 -1 -4 -18 0 -16 -3 -59 -7 -95 -14
-125 -16 -145 -16 -172 -1 -16 -5 -28 -11 -28 -6 0 -8 -8 -5 -18 4 -11 -1 -23
-13 -31 -11 -8 -17 -21 -14 -30 4 -13 3 -13 -5 -2 -8 11 -14 10 -35 -3 -17
-11 -27 -14 -32 -7 -3 6 -16 9 -28 6 -12 -3 -42 -7 -67 -9 -34 -3 -49 -10 -66
-31 -16 -20 -23 -23 -27 -14 -4 10 -6 9 -6 -3 -1 -9 -11 -18 -23 -20 -16 -2
-25 -12 -29 -33 -4 -16 -7 -24 -8 -17 0 6 -6 12 -12 12 -5 0 -9 -8 -7 -17 1
-10 -1 -24 -5 -30 -7 -11 20 -111 34 -123 6 -6 49 -97 49 -106 0 -13 33 -36
92 -66 62 -31 123 -41 136 -22 12 16 35 16 29 0 -4 -11 -1 -13 10 -9 10 4 14
2 10 -4 -4 -6 0 -16 8 -23 8 -7 15 -19 15 -26 0 -8 7 -14 15 -14 11 0 15 -12
15 -51 0 -34 4 -48 11 -43 17 10 7 -69 -11 -83 -11 -9 -12 -12 -2 -13 19 0
-19 -49 -38 -50 -9 0 -21 -5 -28 -12 -8 -8 -15 -8 -26 1 -10 8 -16 9 -21 1 -4
-7 -13 -6 -28 2 -12 7 -31 11 -42 9 -33 -4 -108 -31 -132 -47 -12 -8 -30 -16
-40 -18 -43 -10 -63 -19 -63 -31 0 -7 -9 -24 -20 -37 -36 -46 -68 -166 -64
-238 2 -36 4 -78 4 -94 0 -16 9 -40 20 -54 11 -13 20 -31 20 -38 0 -8 5 -14
10 -14 6 0 10 -5 10 -10 0 -18 53 -61 82 -67 15 -3 25 -9 23 -13 -3 -5 11 -14
30 -20 19 -6 35 -18 35 -27 0 -11 11 -14 48 -12 26 1 55 -2 65 -7 37 -21 42
-127 7 -149 -8 -5 -8 -11 1 -21 9 -11 8 -18 -5 -32 -19 -22 -21 -38 -3 -45 6
-3 1 -6 -12 -6 -13 -1 -21 -4 -17 -8 14 -14 -59 -29 -99 -20 -39 9 -104 10
-178 3 -45 -5 -113 -49 -124 -80 -21 -64 -6 -169 28 -186 10 -6 19 -17 19 -25
0 -8 8 -20 19 -27 10 -7 27 -28 38 -45 11 -18 23 -30 26 -26 4 3 7 1 7 -6 0
-7 6 -11 14 -8 8 3 16 1 18 -5 2 -6 20 -12 40 -12 20 -1 34 -4 32 -7 -2 -4 5
-28 17 -53 19 -45 18 -84 -3 -55 -7 10 -8 9 -4 -5 6 -18 -24 -50 -49 -51 -5
-1 -9 -6 -7 -13 1 -7 -2 -12 -8 -12 -5 0 -10 -7 -10 -16 0 -11 -6 -14 -22 -8
-13 4 -43 6 -67 5 -26 -1 -48 4 -54 11 -6 10 -10 10 -13 1 -4 -9 -17 -7 -50 7
-24 11 -44 15 -44 10 0 -6 -9 -10 -20 -10 -12 0 -35 -7 -51 -16 -17 -8 -33
-13 -36 -11 -2 3 -13 -2 -24 -11 -11 -9 -35 -17 -53 -17 -30 0 -33 3 -30 23 3
14 0 21 -8 20 -8 -2 -12 6 -10 22 2 17 0 21 -6 12 -10 -15 -25 -1 -36 35 -6
19 -25 38 -81 81 -34 26 -181 57 -200 42 -5 -5 -27 -11 -47 -15 -21 -4 -35
-11 -32 -16 3 -5 -4 -9 -14 -9 -20 0 -144 -93 -151 -113 -2 -7 -10 -19 -17
-28 -18 -20 -32 -169 -15 -169 6 0 11 -10 11 -23 0 -12 9 -29 20 -37 11 -8 20
-19 20 -25 1 -19 58 -77 69 -71 6 4 15 -4 21 -18 5 -14 14 -26 18 -26 5 0 20
-11 34 -24 13 -14 30 -26 38 -28 8 -2 20 -8 27 -14 14 -13 117 -26 153 -19 14
3 40 8 58 11 17 3 32 12 32 19 0 6 11 17 25 23 14 6 25 16 25 22 0 5 7 10 16
10 9 0 14 6 11 13 -2 6 0 20 4 29 8 15 13 16 48 3 22 -7 42 -11 45 -7 4 3 9
-4 13 -16 3 -12 12 -22 19 -22 8 0 14 -6 14 -13 0 -18 77 -68 110 -72 14 -1
27 -4 30 -5 3 -1 15 -1 27 0 12 1 30 -3 39 -8 22 -12 46 -82 34 -97 -6 -7 -7
-15 -3 -18 8 -9 -17 -38 -28 -31 -5 3 -14 2 -20 -2 -8 -5 -8 -9 1 -14 9 -5 9
-13 2 -27 -6 -11 -8 -31 -5 -44 3 -13 2 -21 -2 -17 -4 4 -22 -4 -40 -17 -17
-14 -37 -25 -43 -25 -6 0 -9 -8 -6 -18 5 -14 3 -14 -10 2 -9 11 -16 16 -16 10
-1 -5 -7 8 -14 28 -8 21 -24 47 -37 58 -24 20 -113 51 -159 55 -39 3 -71 16
-65 24 7 13 -86 5 -120 -10 -16 -7 -34 -13 -40 -14 -5 0 -16 -4 -23 -9 -7 -4
-39 -11 -70 -16 -61 -8 -82 0 -82 31 0 11 -4 19 -9 19 -5 0 -15 15 -22 33 -22
55 -72 116 -95 117 -12 0 -25 7 -28 16 -5 13 -19 16 -82 12 -41 -2 -78 -8 -82
-14 -4 -6 -24 -17 -46 -25 -21 -8 -51 -28 -67 -46 -16 -18 -33 -33 -39 -33 -6
0 -13 -13 -16 -30 -4 -16 -10 -27 -15 -24 -18 11 -14 -80 4 -104 24 -31 130
-132 138 -132 5 0 9 5 9 11 0 7 11 0 24 -14 20 -22 33 -26 77 -25 62 0 91 10
132 44 16 14 36 23 43 20 8 -3 11 0 8 9 -3 8 3 16 15 20 12 3 19 10 16 14 -10
17 45 8 61 -10 9 -11 23 -19 29 -19 14 0 25 -31 25 -72 0 -15 5 -30 10 -33 6
-3 10 -17 10 -31 0 -13 11 -34 25 -46 14 -12 25 -28 25 -35 0 -8 14 -19 30
-24 17 -6 30 -15 30 -20 0 -5 14 -9 30 -9 17 0 30 -4 30 -8 0 -8 50 -13 129
-12 19 1 42 5 52 11 13 7 26 6 42 -2 12 -7 24 -12 27 -12 3 1 7 -1 10 -4 3 -4
-2 -2 -10 2 -13 8 -13 6 -1 -8 7 -9 17 -14 22 -11 5 3 9 -1 9 -10 0 -8 -5 -16
-11 -18 -9 -3 -9 -9 -1 -25 10 -17 8 -22 -13 -31 -17 -8 -23 -16 -18 -28 5
-14 3 -16 -11 -11 -15 6 -17 3 -13 -12 3 -14 1 -18 -9 -14 -8 3 -14 -1 -14 -9
0 -15 -69 -84 -81 -81 -3 1 -14 -16 -24 -37 -10 -22 -21 -40 -25 -40 -3 0 -13
-23 -20 -50 -8 -28 -19 -55 -26 -61 -7 -6 -16 -30 -20 -54 -3 -24 -15 -53 -25
-64 -10 -11 -19 -23 -19 -26 0 -4 -11 -21 -25 -39 -14 -18 -25 -43 -25 -56 0
-13 -3 -20 -7 -16 -8 7 -74 -130 -70 -147 1 -6 -2 -11 -8 -12 -5 0 -20 -9 -31
-20 -12 -11 -40 -36 -63 -55 -22 -19 -41 -41 -41 -47 0 -7 -5 -13 -12 -13 -6
0 -8 -3 -5 -6 4 -4 -6 -23 -22 -43 -15 -20 -26 -42 -24 -48 3 -7 0 -13 -5 -13
-6 0 -14 -9 -17 -20 -3 -11 -14 -20 -22 -20 -9 0 -14 -3 -10 -6 7 -7 -114
-124 -128 -124 -6 0 -25 -16 -43 -35 -29 -33 -36 -47 -33 -68 0 -4 -5 -6 -11
-5 -7 2 -12 -3 -10 -11 1 -7 -8 -23 -21 -35 -13 -12 -22 -27 -19 -34 2 -7 -2
-10 -11 -6 -10 3 -17 -3 -21 -19 -4 -17 -21 -32 -49 -46 -24 -12 -56 -35 -71
-51 -14 -17 -30 -30 -34 -30 -5 0 -23 -20 -41 -45 -18 -25 -38 -45 -44 -45 -7
0 -40 -29 -75 -65 -34 -36 -69 -65 -76 -65 -8 0 -16 -6 -19 -13 -6 -16 -72
-36 -110 -33 -16 1 -39 15 -57 34 -16 18 -36 32 -44 32 -9 0 -16 6 -16 13 0
18 -68 46 -130 53 -30 4 -56 10 -58 14 -1 4 -22 4 -45 0 -33 -5 -52 -1 -83 14
-35 19 -40 26 -42 61 -2 25 0 35 6 27 15 -22 29 28 26 93 -4 86 -9 111 -25
131 -9 11 -9 15 -1 10 20 -12 13 13 -9 32 -12 9 -26 22 -33 27 -6 6 -26 17
-43 24 -18 7 -33 17 -33 22 0 5 -7 9 -15 9 -9 0 -18 6 -21 14 -9 23 -46 27
-116 12 -89 -19 -136 -43 -163 -85 -30 -46 -42 -106 -25 -126 9 -11 10 -15 1
-15 -9 0 -11 -20 -9 -67 2 -53 7 -73 23 -89 12 -11 19 -26 17 -32 -2 -7 3 -10
11 -6 8 3 18 0 22 -5 3 -6 11 -9 16 -5 5 3 8 0 7 -7 -4 -18 59 -49 97 -49 17
0 35 -4 40 -9 6 -5 30 -11 55 -13 59 -4 69 -15 63 -69 -10 -112 -9 -168 4
-173 7 -3 13 -19 13 -36 0 -16 4 -30 10 -30 5 0 10 -10 10 -22 0 -13 1 -33 1
-45 0 -13 5 -25 10 -28 5 -4 6 -11 3 -17 -4 -6 -2 -8 4 -4 6 3 13 2 17 -4 3
-5 2 -10 -2 -10 -5 0 -9 -9 -10 -20 -4 -45 -75 -110 -120 -110 -8 0 -12 -4 -8
-9 3 -5 1 -12 -5 -16 -5 -3 -10 0 -10 7 0 7 -12 0 -26 -15 -15 -17 -32 -26
-41 -23 -14 6 -24 2 -100 -38 -17 -9 -38 -16 -47 -16 -9 0 -19 -6 -21 -12 -3
-7 -21 -14 -41 -16 -20 -1 -48 -11 -63 -21 -26 -19 -70 -36 -83 -33 -3 1 -12
-5 -18 -13 -7 -8 -20 -15 -29 -15 -21 0 -208 -54 -243 -71 -16 -7 -28 -15 -28
-18 0 -3 -15 -6 -32 -7 -18 0 -49 -4 -68 -8 -19 -5 -52 -9 -72 -11 -20 -1 -49
-10 -63 -19 -15 -10 -29 -15 -32 -12 -3 3 -20 -5 -37 -17 -17 -12 -37 -21 -44
-19 -8 2 -19 -1 -25 -6 -11 -9 -91 -21 -182 -28 -35 -2 -95 -14 -160 -31 -11
-3 -33 -7 -50 -10 -16 -3 -33 -10 -37 -16 -10 -16 -108 -18 -102 -2 3 7 -4 15
-15 18 -12 3 -19 1 -15 -4 3 -5 1 -9 -5 -9 -20 0 -21 20 -1 52 20 33 27 88 12
88 -4 0 -8 9 -8 20 0 11 3 20 7 20 8 0 31 106 35 164 2 29 -2 56 -9 65 -9 12
-9 13 1 7 15 -9 15 -1 2 25 -8 14 -7 19 2 19 9 0 9 3 0 12 -16 16 -15 49 3 72
8 11 15 28 15 38 0 10 4 18 9 18 5 0 8 15 6 33 -4 24 -2 28 6 17 8 -12 12 -12
16 -2 3 7 29 37 58 65 60 60 93 120 77 140 -17 20 -27 144 -13 161 10 11 9 19
-1 37 -10 16 -10 23 -1 26 7 2 10 10 8 16 -4 12 -17 180 -19 247 -1 19 -5 40
-9 47 -4 6 -3 13 3 15 16 5 13 148 -4 148 -4 0 -6 7 -2 15 3 9 -3 23 -15 33
-11 9 -30 25 -42 35 -12 10 -34 26 -49 35 -16 9 -28 20 -28 24 0 4 -7 5 -15 2
-8 -4 -17 1 -21 10 -3 9 -17 16 -32 16 -57 0 -141 36 -155 68 -6 13 -16 21
-24 18 -7 -3 -13 -1 -13 4 0 6 4 10 9 10 5 0 8 45 6 102 -2 57 1 125 6 152 5
26 10 69 10 95 1 25 6 51 11 58 5 6 8 17 7 25 -6 27 13 114 28 130 8 9 12 22
8 27 -3 6 -1 11 5 11 6 0 9 4 6 9 -10 16 82 131 104 131 11 0 20 7 20 15 0 8
5 15 10 15 6 0 9 6 8 13 -2 6 2 11 8 10 14 -3 47 69 49 107 1 16 6 35 13 42
18 22 30 120 17 144 -14 28 -107 113 -123 114 -7 0 -24 7 -37 16 -19 12 -41
15 -85 12 -33 -2 -60 -1 -60 4 0 13 -17 9 -33 -7 -8 -8 -17 -12 -20 -9 -3 3
-15 1 -26 -6 -15 -8 -21 -8 -21 0 0 6 -10 10 -22 9 -13 -1 -36 3 -51 10 -16 6
-34 8 -40 4 -6 -4 -8 0 -4 10 3 10 3 17 -2 17 -8 0 -39 24 -71 53 -14 14 -52
30 -75 32 -5 0 -21 6 -35 12 -14 6 -47 17 -75 25 -42 12 -53 20 -68 52 -10 21
-20 54 -23 74 -2 20 -10 40 -17 44 -9 6 -9 10 0 16 7 4 15 41 17 85 3 43 8 82
10 86 10 16 14 161 5 161 -5 0 -9 10 -9 23 0 13 -22 46 -55 82 -30 32 -55 62
-55 67 0 4 -9 8 -20 8 -11 0 -20 4 -20 9 0 15 -65 33 -120 35 -19 1 -41 5 -47
9 -7 5 -17 6 -22 3 -5 -3 -11 0 -14 8 -4 9 -14 12 -27 9 -22 -6 -32 -2 -174
68 -82 40 -97 44 -170 45 -56 1 -84 -3 -94 -12 -7 -8 -17 -12 -21 -10 -4 3
-30 -15 -57 -40 -58 -53 -96 -72 -144 -71 -19 0 -46 -3 -60 -7 -23 -6 -24 -6
-7 7 17 14 16 15 -3 20 -11 3 -18 1 -14 -4 8 -14 -23 -11 -38 4 -35 34 -148
77 -148 56 0 -8 -4 -8 -15 1 -8 7 -22 10 -30 6 -8 -3 -15 0 -15 6 0 7 -19 8
-59 4 -39 -5 -62 -3 -66 4 -4 6 -13 9 -21 6 -8 -3 -14 -1 -14 4 0 6 -7 10 -15
10 -8 0 -15 7 -15 15 0 18 -16 20 -23 3 -3 -7 -6 -4 -6 8 -1 32 19 84 34 84
16 0 39 55 30 71 -4 6 -1 16 6 21 8 6 10 11 4 14 -6 2 -9 22 -7 44 3 26 -2 49
-12 65 -9 13 -16 36 -16 50 0 14 -5 25 -10 25 -6 0 -10 6 -9 13 3 23 -13 59
-21 47 -5 -7 -10 -1 -14 16 -7 28 -43 61 -59 56 -5 -1 -6 1 -3 6 6 10 -34 49
-78 77 -23 14 -55 18 -155 21 -80 2 -130 -1 -138 -8 -10 -8 -13 -6 -13 6 0 9
-8 16 -20 16 -11 0 -25 9 -32 20 -7 11 -16 20 -20 20 -21 0 -45 39 -41 64 4
17 -1 34 -11 45 -11 12 -13 21 -7 25 6 4 6 18 1 37 -5 17 -9 34 -8 38 3 30 -4
71 -12 66 -6 -3 -10 0 -10 8 0 38 -241 92 -438 98 -22 1 -39 -6 -51 -20 -10
-12 -22 -21 -27 -21 -13 0 -53 -62 -65 -101 -36 -113 -27 -221 28 -327 62
-120 66 -127 82 -138 8 -6 16 -19 17 -28 9 -60 133 -228 162 -218 7 2 12 -1
12 -8 0 -6 3 -9 8 -7 4 2 21 -4 37 -14 51 -32 156 -80 188 -86 48 -10 117 -50
117 -69 0 -6 -7 -17 -15 -24 -8 -7 -15 -21 -15 -30 0 -19 -57 -46 -117 -54
-17 -2 -36 -7 -42 -10 -5 -4 -12 -3 -15 2 -5 9 -181 8 -206 -1 -8 -2 -49 -11
-90 -18 -41 -7 -81 -17 -88 -22 -7 -5 -15 -7 -19 -4 -3 4 -17 -6 -31 -21 -14
-14 -30 -27 -36 -27 -29 -2 -67 -27 -93 -61 -15 -20 -37 -44 -47 -53 -25 -21
-40 -36 -86 -90 -30 -34 -42 -59 -54 -115 -27 -124 -34 -176 -25 -182 18 -11
5 -70 -23 -102 -15 -18 -28 -37 -28 -43 0 -6 -6 -7 -17 -1 -12 7 -23 3 -42
-14 -14 -13 -31 -22 -38 -20 -7 3 -15 0 -19 -6 -4 -7 -3 -8 4 -4 7 4 12 2 12
-3 0 -6 -3 -11 -7 -11 -16 -1 -85 -68 -80 -77 3 -5 -9 -16 -28 -23 -19 -8 -35
-17 -35 -22 0 -5 -11 -14 -25 -20 -14 -6 -25 -17 -25 -25 0 -7 -5 -13 -11 -13
-22 0 -69 -65 -69 -95 0 -6 -11 -33 -25 -59 -33 -62 -44 -175 -21 -211 9 -13
16 -33 16 -43 0 -10 7 -27 15 -38 8 -10 15 -27 15 -36 0 -10 4 -18 10 -18 5 0
7 -6 4 -14 -3 -8 -1 -24 6 -35 6 -12 7 -21 2 -21 -13 0 -23 -73 -12 -84 5 -5
5 -16 1 -25 -5 -9 -7 -32 -6 -51 2 -19 0 -48 -5 -65 -18 -66 -21 -87 -10 -80
5 3 10 1 10 -4 0 -6 -3 -11 -8 -11 -12 0 -31 -74 -22 -85 11 -14 9 -56 -3 -72
-6 -9 -5 -18 2 -27 18 -22 -12 -76 -38 -69 -10 2 -22 0 -25 -5 -9 -15 -68 17
-73 39 -3 10 -9 17 -13 14 -4 -3 -25 12 -46 33 -73 71 -96 80 -212 76 -95 -3
-105 -5 -147 -34 -25 -17 -45 -35 -45 -40 0 -5 -7 -16 -16 -25 -11 -11 -20
-46 -26 -108 -5 -51 -13 -106 -17 -123 -6 -20 -4 -41 4 -60 12 -29 84 -94 104
-94 6 0 11 -4 11 -8 0 -13 62 -39 90 -37 14 1 45 4 70 8 25 4 77 9 115 11 39
3 88 7 110 10 29 5 45 2 60 -10 13 -11 16 -18 8 -21 -8 -3 -6 -14 8 -39 11
-20 17 -40 13 -46 -9 -14 16 -58 33 -58 7 0 13 -7 13 -15 0 -8 -4 -15 -9 -15
-11 0 18 -102 31 -111 15 -10 3 -108 -16 -122 -9 -7 -19 -28 -23 -47 -9 -50
-5 -144 6 -148 6 -2 7 -10 4 -19 -3 -8 0 -19 8 -24 12 -7 12 -11 -1 -23 -20
-19 -76 -34 -65 -17 4 8 -1 14 -14 18 -12 3 -21 10 -21 15 0 6 -7 8 -15 4 -8
-3 -15 -1 -15 5 0 16 -56 65 -69 61 -6 -2 -11 1 -11 7 0 6 -7 11 -16 11 -8 0
-12 5 -9 11 8 11 -43 59 -62 59 -7 0 -13 3 -13 8 0 9 -62 46 -73 44 -4 -1 -10
4 -13 12 -3 8 -12 12 -20 9 -9 -3 -14 1 -14 12 0 9 -4 13 -10 10 -5 -3 -15 7
-22 22 -7 15 -32 46 -55 68 -99 92 -203 195 -203 200 0 4 -12 31 -26 61 -25
52 -80 104 -112 104 -7 0 -28 16 -47 35 -23 25 -35 32 -39 23 -3 -7 -3 -3 0 9
3 15 -1 23 -14 27 -18 6 -48 52 -44 69 1 4 -4 7 -12 7 -7 0 -16 8 -20 18 -14
42 -44 75 -60 65 -5 -3 -6 -1 -2 5 4 7 2 12 -3 12 -6 0 -11 6 -11 13 0 7 -11
21 -25 31 -14 10 -25 25 -25 34 0 8 -19 33 -43 56 -24 23 -42 47 -39 54 2 6
-1 12 -7 12 -6 0 -31 20 -55 45 -25 25 -50 45 -55 45 -5 0 -16 12 -26 26 -9
14 -22 23 -30 20 -10 -3 -12 0 -8 11 5 13 2 15 -12 9 -11 -4 -16 -4 -12 0 3 4
-14 23 -38 42 -25 19 -45 38 -45 42 0 4 -22 31 -50 61 -27 29 -47 56 -44 61 3
4 -1 17 -9 29 -11 15 -16 17 -20 7 -3 -7 -6 -3 -6 10 -1 13 -5 21 -9 18 -4 -2
-9 7 -10 22 -1 15 -8 32 -15 37 -7 6 -17 17 -21 25 -17 36 -36 64 -36 55 -1
-20 -40 41 -40 63 0 12 -9 31 -20 42 -11 11 -20 27 -20 36 0 9 -17 33 -37 52
-21 19 -45 45 -53 57 -33 49 -72 102 -105 145 -19 25 -42 60 -50 77 -9 18 -20
33 -26 33 -5 0 -8 4 -5 9 3 5 -1 14 -9 21 -8 7 -15 25 -15 41 0 16 -3 29 -7
29 -15 0 -78 148 -74 172 1 10 -2 18 -8 18 -6 0 -15 18 -21 40 -6 22 -15 40
-20 40 -4 0 -16 21 -26 48 -10 26 -25 58 -34 72 -10 14 -20 51 -24 82 -6 61
-42 142 -57 132 -5 -3 -9 0 -9 5 0 6 8 11 18 11 16 1 16 1 0 14 -9 7 -17 21
-17 32 0 10 -2 37 -6 59 -10 59 -15 114 -16 170 0 28 -6 66 -12 85 -6 19 -11
40 -12 45 -1 6 -6 21 -12 35 -5 14 -11 64 -12 113 -1 48 -6 111 -12 140 -13
64 -19 159 -11 172 12 19 7 40 -12 58 -11 10 -20 30 -21 45 -1 15 -4 32 -7 38
-4 5 -9 45 -13 88 -3 44 -7 82 -9 85 -6 9 -19 219 -17 276 1 28 3 110 5 183 1
72 6 135 9 139 11 11 8 25 -4 17 -8 -5 -8 -1 0 14 9 17 8 23 -4 30 -10 5 -17
27 -19 63 -2 30 -8 78 -14 106 -6 29 -9 60 -6 68 4 8 2 15 -4 15 -5 0 -12 9
-15 20 -3 11 -2 18 3 15 18 -11 28 184 12 247 -11 41 -8 399 3 436 4 12 11 22
17 22 5 0 4 10 -3 21 -11 21 -5 31 26 42 6 2 5 13 -2 30 -7 14 -8 29 -3 32 4
3 1 20 -8 38 -52 102 -53 112 -57 470 -3 186 -7 342 -10 347 -4 6 -3 10 2 10
4 0 8 37 9 83 1 104 13 200 26 208 6 4 7 12 3 18 -5 10 -12 51 -18 124 -3 23
15 172 21 182 3 5 7 16 8 25 0 8 6 40 12 70 5 30 9 72 7 93 -2 20 0 35 5 32 8
-5 27 114 35 220 2 33 6 67 7 75 6 36 -15 114 -38 139 -13 14 -24 29 -24 33 0
5 -9 8 -20 8 -10 0 -35 8 -55 17 -34 16 -37 16 -79 -4 -65 -32 -110 -76 -139
-136 -43 -90 -49 -123 -40 -224 5 -51 5 -99 1 -107 -5 -8 -11 -45 -13 -83 -3
-37 -8 -82 -10 -98 -3 -17 -7 -75 -10 -130 -3 -55 -10 -117 -16 -138 -5 -20
-7 -42 -4 -47 3 -5 1 -11 -5 -15 -5 -3 -10 -17 -10 -29 0 -13 -6 -29 -14 -35
-15 -12 -46 -5 -46 11 0 6 -6 8 -14 5 -9 -4 -17 8 -25 34 -7 21 -16 39 -21 39
-6 0 -10 8 -10 17 0 9 -9 44 -19 77 -28 88 -43 182 -40 252 1 33 -1 66 -5 73
-13 21 -14 130 -1 198 7 37 9 78 5 92 -14 49 -8 196 12 311 11 63 20 124 19
135 0 11 0 39 -1 63 0 23 5 61 11 85 7 23 12 50 11 59 0 10 3 20 8 23 5 3 7
11 4 18 -2 7 0 35 6 62 6 28 12 61 14 75 3 14 10 39 17 55 7 17 14 41 16 55 6
60 21 118 42 160 13 24 26 69 28 100 3 30 9 60 13 65 4 6 11 26 15 45 7 31 31
92 57 143 5 10 6 21 4 26 -6 8 33 123 44 131 17 13 74 106 72 117 -2 8 3 10
13 7 11 -4 15 1 17 17 2 36 3 43 9 54 3 6 7 28 8 50 1 22 9 50 17 62 8 13 12
23 9 23 -4 0 2 14 12 30 9 17 21 30 25 30 4 0 8 7 8 15 0 8 11 25 25 39 14 14
25 30 25 36 0 11 29 56 61 95 9 11 20 37 23 58 4 20 11 37 15 37 14 0 19 49 7
59 -6 5 -33 12 -59 16 -45 7 -71 22 -79 45 -5 17 -103 -18 -135 -48 -52 -52
-88 -97 -108 -136 -11 -21 -44 -65 -73 -98 -46 -52 -52 -63 -47 -91 8 -40 -5
-76 -48 -131 -18 -24 -39 -63 -47 -87 -7 -24 -24 -67 -36 -96 -13 -28 -24 -54
-24 -57 0 -3 -16 -41 -36 -83 -21 -47 -37 -99 -40 -133 -3 -30 -14 -75 -25
-100 -11 -24 -22 -65 -24 -90 -2 -25 -8 -59 -13 -76 -5 -17 -8 -43 -5 -57 3
-17 -6 -50 -26 -94 -19 -40 -31 -80 -30 -98 2 -17 0 -35 -4 -42 -4 -6 -10 -40
-13 -75 -3 -34 -12 -83 -20 -108 -7 -25 -16 -68 -18 -96 -3 -28 -10 -64 -16
-79 -6 -15 -13 -80 -15 -144 -3 -64 -8 -147 -12 -186 -13 -113 -9 -197 26
-530 10 -97 39 -264 49 -280 3 -5 7 -16 8 -25 6 -52 38 -171 54 -206 11 -22
20 -46 20 -52 0 -7 4 -12 10 -12 5 0 9 -3 8 -7 -7 -28 17 -75 45 -90 18 -8 36
-23 41 -32 9 -15 42 -51 112 -124 17 -18 44 -41 59 -52 22 -17 28 -29 30 -70
2 -28 6 -83 9 -123 8 -97 -6 -129 -70 -162 -71 -36 -128 -78 -198 -142 -33
-32 -64 -58 -68 -58 -5 0 -8 -7 -8 -15 0 -8 -4 -15 -8 -15 -14 0 -51 -84 -62
-139 -11 -58 -25 -89 -52 -112 -10 -9 -18 -21 -18 -26 0 -6 -16 -39 -35 -74
-19 -35 -38 -72 -41 -81 -4 -10 -10 -18 -14 -18 -11 0 -62 -159 -54 -171 3 -5
1 -16 -6 -24 -13 -16 -19 -70 -21 -210 -2 -80 1 -108 16 -140 10 -22 19 -42
20 -45 14 -60 19 -77 26 -90 20 -33 49 -113 49 -131 0 -19 65 -99 81 -99 4 0
20 -5 36 -12 15 -6 34 -12 42 -14 8 -1 21 -10 30 -20 13 -14 13 -15 1 -9 -8 4
-5 -3 8 -16 13 -13 40 -42 60 -65 43 -47 200 -134 243 -134 10 0 19 -5 19 -11
0 -5 4 -8 9 -5 5 3 12 -5 15 -19 4 -16 13 -25 26 -25 26 0 30 -21 28 -155 -2
-152 16 -395 31 -424 16 -32 23 -98 22 -221 0 -75 4 -145 12 -175 8 -28 12
-78 9 -115 -3 -50 2 -86 22 -154 14 -48 30 -94 36 -101 5 -6 12 -27 14 -46 7
-56 28 -129 36 -129 5 0 11 -19 15 -42 4 -23 16 -62 26 -86 11 -25 17 -47 14
-50 -3 -3 0 -11 5 -17 6 -7 12 -36 14 -65 4 -53 26 -108 59 -144 20 -24 38
-82 30 -102 -3 -8 -1 -14 5 -14 5 0 8 -12 6 -27 -2 -16 4 -38 12 -50 8 -12 14
-33 14 -47 0 -29 47 -126 61 -126 5 0 9 -5 9 -11 0 -6 9 -22 20 -36 11 -14 17
-29 14 -34 -3 -5 2 -9 10 -9 9 0 13 -7 11 -20 -2 -11 0 -20 6 -20 5 0 9 -9 9
-19 0 -11 4 -22 9 -25 4 -3 11 -18 14 -33 3 -16 17 -40 31 -55 15 -15 26 -31
26 -35 1 -4 18 -21 39 -38 21 -16 37 -33 34 -38 -2 -4 3 -7 11 -7 9 0 13 -7
11 -19 -2 -12 6 -26 22 -38 34 -24 61 -52 81 -83 9 -14 25 -31 34 -38 10 -7
18 -18 18 -24 0 -24 57 -123 93 -160 20 -22 37 -47 37 -54 0 -8 5 -14 10 -14
6 0 10 -5 10 -12 0 -16 76 -116 122 -160 21 -20 38 -39 38 -42 0 -4 20 -26 45
-49 25 -24 45 -47 45 -50 0 -4 8 -16 18 -26 35 -40 42 -51 42 -70 0 -11 7 -27
16 -35 8 -9 12 -16 9 -16 -15 0 33 -60 82 -105 31 -27 57 -43 64 -39 7 4 9 3
6 -3 -3 -5 19 -35 48 -67 30 -32 55 -62 55 -68 0 -5 5 -6 12 -2 7 4 8 3 4 -5
-7 -10 35 -71 82 -120 7 -8 20 -24 29 -37 8 -13 19 -24 24 -24 7 0 21 -11 82
-68 4 -4 17 -18 28 -32 11 -14 26 -25 32 -25 7 0 11 -9 9 -19 -2 -10 1 -16 6
-13 4 3 14 -10 21 -30 8 -20 24 -47 37 -60 13 -13 24 -28 24 -33 0 -5 8 -11
18 -14 10 -3 26 -20 36 -37 10 -17 20 -28 23 -25 7 6 37 -31 46 -56 3 -10 12
-18 18 -18 7 0 27 -15 45 -32 17 -18 55 -55 83 -83 29 -27 59 -62 67 -77 8
-16 19 -28 24 -28 6 0 10 -6 10 -13 0 -8 12 -20 28 -28 15 -7 45 -25 67 -38
22 -13 46 -24 52 -24 7 0 13 -5 14 -11 0 -12 129 -121 142 -121 5 0 14 -8 21
-17 7 -10 15 -15 19 -12 5 5 36 -18 73 -53 7 -7 16 -13 21 -13 5 0 16 -8 25
-17 28 -30 46 -42 52 -36 3 4 6 1 6 -5 0 -5 16 -20 35 -32 19 -12 32 -27 29
-32 -4 -6 -2 -8 3 -5 6 4 16 0 23 -8 7 -8 18 -15 25 -15 7 0 16 -7 19 -16 3
-8 10 -12 16 -9 6 3 13 -1 16 -9 3 -8 28 -22 55 -31 27 -9 52 -21 55 -27 4 -5
30 -21 58 -34 28 -13 47 -24 41 -24 -5 -1 8 -9 30 -18 61 -26 105 -52 105 -61
0 -5 13 -11 28 -14 19 -4 34 -17 47 -41 11 -20 22 -36 25 -36 3 0 23 -16 45
-35 37 -32 44 -36 61 -34 4 0 10 -4 13 -9 5 -8 136 -32 184 -33 9 0 17 -5 17
-11 0 -5 7 -8 15 -4 8 3 15 1 15 -5 0 -6 7 -9 15 -5 22 8 196 -39 210 -57 6
-9 24 -19 41 -23 16 -4 34 -10 39 -14 6 -4 17 -8 25 -8 8 0 31 -3 50 -7 19 -4
45 -8 57 -9 13 -1 26 -6 30 -9 3 -4 18 -7 33 -7 14 0 31 -5 38 -12 7 -7 12 -8
12 -4 0 5 7 3 15 -4 8 -7 15 -9 15 -5 0 4 7 2 15 -5 8 -7 22 -10 30 -6 8 3 15
2 15 -3 0 -11 135 -36 183 -34 20 1 37 -3 37 -9 0 -6 9 -8 19 -5 12 3 28 -4
42 -19 12 -13 37 -27 56 -30 18 -3 30 -10 28 -15 -12 -19 44 -38 130 -44 50
-3 97 -7 105 -10 18 -5 152 -16 240 -20 36 -1 72 -6 81 -9 10 -4 20 -3 24 3 4
8 12 8 26 0 36 -19 192 -30 269 -18 25 4 47 4 50 0 12 -17 151 -16 161 1 7 10
11 10 21 -1 10 -10 10 -12 1 -7 -7 4 -13 2 -13 -3 0 -14 1 -14 39 5 35 17 123
25 308 28 66 0 119 4 116 9 -6 10 15 9 36 -2 10 -6 33 -6 56 -1 22 5 42 6 45
2 5 -7 7 -8 165 -14 79 -4 105 -1 125 11 20 13 23 13 15 2 -5 -9 5 -5 22 7 17
12 33 19 37 15 3 -3 6 0 6 8 0 10 15 15 55 16 36 1 61 8 72 18 9 9 19 12 22 7
5 -8 89 25 131 52 8 6 33 11 55 13 22 2 47 6 55 9 8 4 57 6 107 6 81 -1 103 3
168 30 44 18 72 35 68 41 -4 7 0 8 11 4 10 -4 23 -4 29 0 6 4 27 8 47 9 58 3
61 4 56 12 -2 4 16 7 40 6 24 -1 44 3 44 8 0 6 11 8 25 6 14 -3 25 -1 25 3 0
5 10 8 23 7 12 -1 45 7 72 17 28 10 60 17 73 16 12 0 22 4 22 10 0 5 4 8 9 4
5 -3 13 -1 16 5 5 8 11 8 20 0 10 -8 21 -8 42 3 15 8 44 18 63 22 19 4 44 14
56 22 14 9 23 10 26 3 2 -6 12 -4 27 7 14 9 36 17 50 18 13 0 26 6 29 13 2 7
10 12 18 12 8 0 14 4 14 10 0 5 7 7 15 3 10 -3 15 0 13 8 -2 9 6 14 19 14 12
0 25 4 29 8 4 4 16 7 26 7 11 0 16 5 13 10 -3 6 2 11 12 12 32 2 37 4 87 26
27 12 57 22 67 22 9 0 24 7 33 15 8 8 21 15 30 15 8 0 27 5 43 12 15 6 36 10
45 9 9 -1 36 10 60 26 64 41 88 53 109 53 10 0 20 4 23 9 6 9 83 26 89 19 1
-1 15 5 29 14 15 10 33 15 41 12 8 -3 18 -1 22 5 3 6 15 11 26 11 10 0 19 5
19 11 0 5 14 15 30 20 17 6 30 14 30 19 0 7 79 64 90 65 3 0 11 4 18 8 6 5 12
5 12 1 0 -4 13 9 30 27 16 19 30 30 30 25 0 -5 10 0 23 11 12 11 37 26 55 33
17 7 32 17 32 22 0 5 4 6 10 3 10 -6 87 39 108 64 7 9 16 16 20 16 17 0 72 28
72 36 0 5 11 14 24 19 22 8 48 28 107 83 10 9 24 17 29 17 6 0 10 7 10 15 0 8
18 28 41 44 22 16 40 32 40 35 -1 3 -1 10 -1 14 0 5 23 18 50 30 28 12 48 27
45 32 -3 5 0 8 7 5 7 -3 27 6 43 21 17 14 40 34 53 45 12 10 26 19 31 19 5 0
12 8 16 18 3 9 23 28 45 42 22 13 40 29 40 35 0 6 13 15 28 21 29 11 92 93 92
119 0 7 7 21 16 29 8 9 13 20 9 26 -3 6 1 7 10 4 12 -5 16 -2 13 12 -2 11 2
18 9 17 7 -2 22 10 34 27 12 16 26 27 31 24 10 -6 55 20 78 45 8 9 37 46 65
81 27 36 55 68 62 73 7 4 9 15 6 24 -5 12 -2 15 9 10 18 -6 72 48 63 63 -3 6
3 10 14 10 12 0 21 3 21 8 0 4 15 17 33 29 19 14 40 41 51 70 11 26 26 54 34
62 11 11 11 15 0 22 -10 7 -9 9 3 9 9 0 24 18 34 41 10 22 26 46 35 52 10 7
32 40 49 74 18 34 43 69 57 77 13 9 23 20 21 24 -1 4 11 21 26 37 15 17 34 44
41 60 28 64 51 120 52 127 1 4 3 10 4 13 1 3 3 10 4 16 2 16 37 39 59 39 13 0
17 5 13 15 -3 8 -1 15 4 15 6 0 10 5 10 12 0 6 7 19 15 28 8 9 16 25 18 36 1
10 5 24 9 29 3 6 5 26 5 45 -1 20 2 40 5 45 3 6 5 28 4 50 -2 22 2 46 7 52 5
7 7 20 3 28 -3 9 1 18 10 22 8 3 13 12 9 20 -4 11 -1 13 12 9 10 -4 14 -4 11
0 -4 3 0 20 8 36 9 17 14 39 11 49 -3 11 -1 19 4 19 5 0 9 9 9 20 0 12 8 35
17 53 9 18 16 37 15 43 -1 7 4 14 13 17 9 4 12 13 8 23 -4 12 -3 15 5 10 7 -4
13 -1 14 6 0 7 2 18 3 23 2 6 3 16 4 23 0 6 7 11 14 10 6 -2 11 5 11 14 -1 10
2 18 7 18 5 0 6 7 3 15 -4 8 -1 15 5 15 6 0 10 10 10 23 -2 61 10 132 25 142
9 7 16 18 16 24 0 7 4 10 9 6 5 -3 12 4 16 15 3 11 11 20 16 20 6 0 8 8 4 19
-4 13 0 20 13 23 11 3 22 18 26 34 4 16 18 50 31 76 14 26 22 54 19 63 -3 8
-2 15 2 15 5 0 10 16 12 36 1 19 9 42 17 51 9 9 15 31 14 52 0 20 8 59 20 86
11 28 20 45 21 38 0 -21 26 -4 27 18 1 12 9 29 17 38 9 10 16 30 16 44 0 15 5
27 10 27 6 0 10 10 10 22 0 12 6 29 14 37 17 21 38 161 26 176 -5 6 -6 16 -1
21 4 5 13 23 19 39 5 17 13 39 18 49 6 15 4 17 -7 11 -11 -6 -12 -5 -1 6 6 7
12 19 12 27 0 8 10 23 22 33 12 11 16 19 8 19 -10 0 -10 3 0 15 7 8 10 15 7
15 -3 0 1 16 9 35 8 20 12 40 9 44 -2 5 3 30 11 56 9 26 20 42 23 36 5 -8 14
-5 27 7 15 15 26 17 53 11 19 -4 39 -5 45 -2 12 8 96 11 96 4 0 -7 156 -5 190
2 14 3 54 11 90 18 36 6 73 18 83 27 10 9 26 16 36 17 22 2 97 45 132 76 15
13 50 40 78 59 28 19 57 40 64 47 21 21 37 42 37 48 0 15 44 63 53 58 6 -3 7
-1 3 6 -9 14 43 123 55 116 4 -3 10 4 14 15 3 11 13 20 22 20 9 0 13 6 9 15
-3 8 0 15 7 15 18 0 66 57 89 107 11 24 24 46 29 49 5 3 9 20 9 38 0 19 9 43
20 56 18 21 25 41 21 63 0 4 4 7 9 7 16 0 63 107 57 130 -3 10 1 24 8 30 8 6
17 26 21 43 3 17 14 37 23 44 13 9 16 32 15 136 -1 86 -6 134 -16 154 -9 18
-13 55 -12 106 2 62 -1 79 -13 84 -8 3 -11 8 -5 12 7 4 4 25 -8 58 -10 29 -16
62 -13 74 5 17 3 21 -9 16 -11 -4 -16 1 -16 16 0 27 -38 160 -60 207 -8 19
-15 41 -13 48 1 6 -4 12 -10 12 -7 0 -9 3 -6 6 4 4 -2 19 -12 33 -10 14 -21
36 -25 47 -4 12 -15 29 -26 39 -11 10 -20 24 -20 31 0 8 -6 11 -17 7 -13 -5
-15 -2 -10 11 7 19 -16 62 -47 86 -33 26 -68 64 -87 95 -11 17 -19 26 -19 21
0 -6 -6 -3 -12 6 -25 30 -120 98 -138 98 -10 0 -20 5 -22 12 -3 9 -29 8 -109
-2 -57 -7 -115 -14 -129 -15 -36 -3 -54 -9 -61 -19 -4 -4 -15 -4 -25 1 -48 24
-214 7 -213 -22 0 -14 -43 -24 -58 -13 -6 5 -14 5 -17 -1 -4 -5 -15 -5 -31 2
-18 9 -23 17 -19 31 4 13 3 16 -6 11 -10 -6 -12 0 -7 28 3 21 2 37 -2 37 -5 0
-7 30 -5 68 3 70 -10 142 -26 142 -5 0 -7 7 -4 15 4 8 -1 17 -10 21 -9 3 -16
14 -16 25 0 10 -9 23 -20 29 -11 6 -20 17 -20 25 0 9 -4 24 -10 35 -5 11 -15
29 -20 40 -6 12 -8 25 -5 30 4 6 1 10 -6 10 -9 0 -9 4 1 15 6 8 9 19 5 25 -3
5 0 10 8 10 8 0 22 11 31 25 9 14 25 25 35 25 11 0 31 14 44 30 14 17 30 30
36 30 6 0 11 5 11 10 0 6 6 10 13 10 17 0 42 72 34 94 -3 8 -2 18 4 22 6 3 8
12 5 19 -4 12 0 30 30 110 10 27 13 145 4 145 -4 0 -5 12 -2 26 3 19 1 25 -7
20 -6 -4 -11 -3 -11 3 0 5 5 13 11 16 6 4 8 14 5 22 -3 8 3 27 14 43 23 32 26
78 6 86 -17 7 -15 126 3 148 8 9 15 36 16 61 2 24 7 50 11 56 5 8 3 9 -6 4
-10 -6 -11 -3 -6 16 18 57 25 122 16 145 -6 15 -6 23 -1 19 13 -7 19 18 21 85
3 122 9 176 20 204 6 16 13 66 16 110 3 45 8 88 11 96 3 8 7 26 9 40 2 13 10
38 18 55 28 56 73 160 80 183 4 12 12 22 18 22 5 0 7 8 4 17 -4 10 -4 14 0 10
4 -4 15 7 25 23 14 23 16 36 9 56 -6 14 -7 30 -4 35 3 6 8 29 11 52 2 23 13
51 23 62 21 23 37 78 44 150 3 27 10 51 16 53 5 2 10 10 10 17 0 8 6 18 13 22
17 10 34 55 42 111 4 23 11 42 17 42 6 0 8 6 5 14 -3 8 -3 17 1 21 7 7 8 12
11 72 0 19 10 41 23 53 12 11 18 20 14 20 -4 0 2 9 13 21 10 11 22 36 26 55 3
19 10 34 15 34 11 0 26 48 22 68 -2 6 1 12 6 12 9 0 21 80 25 160 1 19 6 38
11 41 4 4 3 16 -3 28 -11 20 -9 60 3 80 4 5 1 13 -5 17 -8 4 -9 3 -5 -4 4 -7
2 -12 -3 -12 -13 0 -14 17 -2 24 4 3 14 26 21 52 7 25 19 48 27 51 8 3 13 13
12 22 -3 30 1 42 11 36 14 -8 18 53 7 105 -2 14 -9 24 -15 23 -5 -1 -8 7 -5
17 3 11 1 20 -3 20 -5 0 -10 17 -12 37 -4 67 -74 106 -152 86 -18 -5 -70 -92
-70 -117 0 -4 -7 -14 -15 -23 -9 -8 -19 -28 -22 -44 -3 -16 -9 -29 -14 -29 -5
0 -9 -4 -9 -10 0 -5 -23 -32 -51 -60 -28 -28 -49 -58 -48 -68 2 -9 -7 -37 -20
-60 -12 -24 -20 -50 -17 -58 3 -8 1 -14 -4 -14 -6 0 -10 -9 -10 -20 0 -11 -7
-20 -15 -20 -18 0 -59 -76 -51 -96 3 -8 -3 -20 -14 -26 -15 -10 -17 -15 -7
-27 10 -12 9 -14 -4 -9 -9 4 -22 1 -28 -5 -7 -7 -16 -13 -22 -13 -5 -1 -13 -2
-18 -3 -5 0 -13 -10 -16 -21 -8 -26 -21 -26 -28 0 -3 11 -1 18 4 14 13 -8 11
10 -3 24 -10 10 -10 15 1 21 8 5 12 18 8 30 -3 12 -1 21 5 21 6 0 8 9 5 20 -3
12 -1 18 5 14 7 -5 9 10 6 44 -3 28 -1 55 4 60 4 4 5 29 2 54 -5 39 -11 49
-34 58 -21 9 -33 9 -50 0 -32 -17 -70 -22 -70 -9 0 6 -29 39 -65 74 -36 35
-65 67 -65 70 0 3 7 5 15 5 13 0 20 18 16 43 0 4 4 7 9 7 6 0 10 9 10 19 0 11
12 33 26 50 14 17 22 36 18 42 -4 7 -3 9 3 6 5 -4 16 6 24 21 8 15 18 30 24
34 5 4 6 8 2 8 -4 0 4 10 18 23 14 12 27 29 28 38 2 9 15 33 30 53 16 20 24
36 20 36 -4 1 6 7 23 14 18 8 37 28 48 50 18 38 29 48 20 19 -3 -10 2 -6 10 9
9 14 32 36 51 48 19 12 35 28 35 35 0 8 8 19 18 24 9 6 13 11 7 11 -5 0 -3 5
5 10 8 5 15 14 15 21 0 9 49 44 93 65 8 4 24 16 37 28 13 12 29 26 37 32 7 7
26 28 42 48 16 19 44 40 63 46 18 7 33 17 33 24 0 14 67 76 82 76 5 0 30 16
55 35 25 19 52 35 61 35 9 0 12 6 8 16 -3 8 -2 13 2 10 14 -8 123 33 148 56
17 17 24 34 24 64 0 64 -18 74 -128 72 -50 -1 -95 1 -98 5 -9 8 -51 -15 -89
-47 -21 -19 -37 -25 -53 -21 -15 4 -21 2 -17 -5 8 -13 -14 -13 -53 1 -19 6
-34 21 -40 37 -13 39 -57 79 -93 86 -36 7 -35 7 -69 -4z m-25 -5928 c22 -6 74
-13 114 -15 45 -2 76 -8 79 -15 2 -7 9 -12 16 -12 15 0 48 -34 45 -46 -4 -18
32 -84 52 -94 12 -7 18 -17 15 -26 -3 -9 -1 -25 6 -37 7 -13 11 -56 9 -104 -1
-46 2 -83 6 -83 4 0 8 -37 9 -83 1 -49 7 -96 17 -118 8 -20 11 -41 7 -45 -4
-5 -11 -43 -13 -84 -6 -83 -15 -120 -28 -120 -5 0 -9 -11 -9 -24 0 -14 -4 -27
-9 -30 -9 -6 -75 -135 -76 -148 0 -4 -9 -16 -20 -27 -36 -37 -45 -50 -45 -71
0 -11 -7 -20 -15 -20 -8 0 -15 -6 -15 -14 0 -8 -24 -39 -54 -70 -29 -31 -51
-56 -49 -56 2 0 -2 -6 -9 -14 -7 -8 -16 -12 -19 -10 -8 4 -59 -45 -59 -57 0
-6 -4 -7 -10 -4 -5 3 -10 -3 -10 -14 0 -12 -7 -21 -15 -21 -9 0 -25 -15 -36
-34 -11 -19 -29 -36 -40 -39 -11 -3 -18 -11 -17 -18 3 -11 -8 -14 -99 -22 -13
-1 -23 -6 -23 -11 0 -4 -6 -6 -14 -3 -8 3 -29 2 -46 -3 -27 -8 -31 -7 -26 7 6
13 4 14 -9 3 -14 -11 -17 -10 -22 9 -3 12 -11 20 -18 17 -14 -5 -14 31 -2 51
4 6 9 27 12 47 2 20 12 44 20 53 12 11 16 28 13 57 -3 23 -1 53 3 68 4 15 3
30 -2 33 -12 8 -12 45 0 45 5 0 9 13 9 29 -1 15 2 33 6 40 4 6 10 24 12 38 3
15 9 30 13 33 5 3 11 15 15 28 11 34 17 184 7 178 -4 -3 -6 5 -4 19 3 13 -2
37 -10 54 -11 21 -12 31 -3 34 8 3 7 8 -2 20 -8 9 -10 22 -6 28 12 20 13 59 1
59 -9 0 -9 2 0 8 14 9 12 44 -2 55 -6 4 -5 10 4 16 12 8 12 12 -2 26 -19 18
-23 30 -7 20 6 -3 10 1 10 9 0 8 -4 17 -9 21 -5 3 -9 19 -9 36 1 17 -4 34 -10
38 -13 8 -12 111 1 111 5 0 5 5 2 10 -3 6 1 17 9 26 9 8 16 25 16 36 0 11 8
27 18 35 9 8 11 11 4 8 -11 -6 -12 -3 -3 14 7 11 17 20 23 18 6 -1 22 14 35
33 35 53 70 89 79 82 4 -4 4 1 1 11 -4 10 -3 16 2 13 4 -3 16 2 24 12 19 21
97 23 162 4z m-12849 -34 c3 -10 9 -16 13 -14 10 7 5 -98 -8 -154 -6 -25 -8
-77 -5 -115 4 -39 5 -79 4 -90 -5 -37 -3 -210 2 -258 4 -37 3 -45 -7 -37 -8 6
-30 8 -55 4 -41 -7 -43 -6 -37 15 4 17 2 21 -9 17 -9 -3 -12 -1 -9 4 4 6 -1
17 -9 26 -9 8 -16 22 -16 30 0 8 -3 13 -7 11 -5 -3 -9 9 -10 27 -1 17 -14 54
-28 81 -15 28 -28 64 -28 82 -1 17 -4 30 -8 27 -4 -2 -6 14 -5 35 1 24 -2 37
-8 34 -5 -4 -7 1 -3 11 4 9 14 49 24 87 13 54 22 74 39 81 12 6 20 16 18 23
-3 6 2 18 11 25 8 7 15 18 15 25 0 11 26 27 60 38 29 10 60 2 66 -15z m5734
-3138 c8 0 33 -9 54 -21 21 -11 44 -18 52 -15 8 3 13 0 11 -7 -1 -7 10 -13 26
-15 16 -2 27 -9 27 -19 0 -10 6 -14 20 -10 11 3 18 2 15 -3 -3 -4 13 -15 34
-23 21 -9 41 -22 44 -29 2 -8 23 -23 46 -33 22 -11 41 -24 41 -28 0 -5 4 -6 8
-3 11 6 38 -18 72 -64 37 -49 80 -88 117 -105 18 -9 35 -20 38 -26 4 -5 16 -7
27 -3 16 5 20 3 15 -9 -3 -9 -1 -17 6 -20 7 -2 12 -12 12 -23 0 -10 5 -18 10
-17 6 1 9 -22 8 -55 -1 -32 -2 -76 -2 -99 0 -24 -4 -51 -10 -60 -11 -23 -24
-166 -14 -160 5 3 9 -27 11 -66 1 -39 7 -76 13 -84 8 -9 8 -13 1 -13 -6 0 -12
-15 -14 -32 -2 -18 -8 -32 -14 -31 -12 2 -10 -298 2 -370 6 -37 -10 -97 -27
-97 -4 0 -11 -17 -15 -37 -4 -21 -13 -42 -21 -48 -10 -8 -11 -18 -2 -48 9 -33
8 -42 -8 -60 -10 -11 -12 -17 -5 -13 23 14 12 -12 -19 -42 -17 -17 -37 -28
-43 -26 -7 3 -18 -6 -25 -18 -7 -14 -43 -38 -86 -58 -41 -19 -75 -39 -75 -43
0 -5 -8 -6 -18 -3 -12 4 -27 -2 -43 -19 -42 -44 -59 -65 -59 -75 0 -6 -7 -13
-15 -16 -8 -4 -15 -13 -15 -20 0 -8 -7 -17 -15 -20 -8 -4 -12 -10 -9 -15 3 -5
2 -9 -3 -8 -4 1 -12 0 -18 -1 -34 -7 -91 4 -106 21 -9 10 -23 19 -32 19 -8 0
-17 5 -19 10 -5 17 -116 19 -123 3 -2 -8 -9 -12 -15 -8 -10 6 -83 -36 -95 -55
-3 -6 -11 -8 -16 -5 -5 4 -9 2 -9 -3 0 -14 -51 -33 -75 -28 -80 16 -123 32
-136 49 -3 4 -28 9 -55 10 -27 1 -55 8 -62 14 -7 7 -25 16 -40 20 -32 7 -109
78 -118 107 -11 35 -73 105 -107 120 -53 25 -118 34 -197 27 -41 -3 -100 -3
-131 1 -97 13 -269 -10 -269 -35 0 -5 -7 -3 -17 4 -13 11 -17 11 -20 2 -5 -14
-25 -18 -21 -5 2 4 -10 20 -26 35 -17 16 -30 39 -31 56 -2 17 -12 42 -24 57
-11 15 -21 33 -21 40 0 8 -4 14 -9 14 -5 0 -16 6 -23 13 -7 6 -28 20 -47 31
-28 15 -35 16 -42 5 -6 -10 -9 -10 -9 -2 0 19 -66 46 -96 39 -15 -4 -23 -3
-20 3 3 5 -11 11 -32 14 -85 13 -101 19 -95 35 5 11 3 13 -6 7 -10 -5 -11 -2
-7 12 4 12 -1 28 -11 40 -43 51 -50 60 -55 75 -4 9 -19 19 -35 22 -16 4 -38
19 -48 33 -11 14 -26 32 -33 40 -7 7 -16 29 -19 48 -3 19 -11 35 -17 35 -8 0
-8 2 0 8 15 9 44 67 44 86 0 9 11 22 24 31 17 11 22 22 19 40 -3 13 2 34 11
47 9 12 16 19 16 14 0 -23 30 21 36 53 4 20 11 44 16 54 5 10 11 43 13 72 1
29 6 58 10 65 4 6 9 26 12 43 2 18 8 46 13 62 9 29 20 120 26 200 1 22 7 60
12 84 5 24 6 56 2 70 -4 14 -3 37 2 50 4 13 6 32 3 42 -5 13 -2 17 7 14 8 -3
24 4 37 16 17 16 25 19 31 9 4 -7 25 -16 46 -20 22 -5 69 -17 106 -28 43 -12
86 -18 125 -15 63 4 200 30 217 41 6 3 21 5 33 4 11 -2 24 1 27 6 3 5 45 -1
98 -14 96 -25 195 -27 236 -5 11 6 22 8 24 5 3 -2 11 2 17 10 7 8 19 12 27 9
8 -3 14 0 14 7 0 7 7 10 15 6 8 -3 15 -2 15 2 0 10 16 12 110 14 77 2 129 -5
139 -19 11 -15 62 -33 94 -33 18 0 57 13 87 29 30 15 72 34 93 40 20 7 37 17
37 22 0 5 14 9 30 9 17 0 39 9 50 20 11 11 28 20 38 20 10 0 27 7 38 15 10 8
26 15 35 15 9 0 27 8 40 19 23 18 24 18 59 -5 19 -13 42 -24 50 -24z"/>
<path d="M6699 4325 c-3 -2 -23 -5 -44 -6 -22 -1 -44 -6 -50 -9 -10 -7 -61
-23 -80 -25 -28 -3 -63 -20 -84 -41 -13 -13 -32 -24 -41 -24 -20 0 -88 -73
-101 -108 -14 -37 1 -172 20 -172 3 0 12 -12 19 -27 13 -30 77 -77 92 -68 5 3
11 1 15 -5 4 -6 10 -8 15 -5 4 3 13 -2 20 -10 7 -8 16 -12 21 -9 5 2 56 -4
115 -16 58 -11 110 -18 115 -15 5 3 18 1 29 -5 12 -6 34 -12 51 -12 16 -1 29
-4 29 -7 0 -5 60 -9 165 -10 22 0 46 -1 53 -1 49 -5 122 1 187 15 91 20 125
26 160 24 44 -3 92 8 113 24 14 11 52 84 52 100 0 5 9 22 21 38 11 16 17 34
14 39 -4 6 -7 30 -7 54 0 40 -5 49 -73 120 -41 42 -80 76 -87 77 -7 1 -28 0
-45 -1 -18 -1 -33 3 -33 9 0 5 -8 10 -17 10 -35 0 -78 6 -88 13 -10 6 -45 9
-87 8 -126 -2 -255 4 -264 13 -4 4 -19 7 -34 7 -15 0 -30 3 -33 7 -4 3 -31 7
-59 7 -29 1 -58 4 -64 8 -6 4 -13 6 -15 3z"/>
<path d="M5975 13117 c-16 -5 -39 -13 -50 -17 -11 -5 -42 -14 -70 -21 -39 -10
-63 -26 -107 -71 -32 -31 -58 -54 -58 -50 0 4 -5 -1 -11 -10 -5 -10 -15 -18
-20 -18 -20 0 -119 -82 -119 -98 0 -5 -15 -16 -32 -26 -72 -38 -158 -96 -158
-107 0 -4 -10 -11 -22 -15 -13 -4 -25 -10 -28 -13 -3 -4 -23 -22 -46 -41 -51
-44 -174 -185 -174 -200 0 -6 -4 -9 -8 -6 -9 6 -42 -29 -42 -44 0 -6 -4 -10
-8 -10 -5 0 -17 -8 -28 -18 -10 -10 -23 -19 -28 -19 -20 -2 -77 -88 -75 -113
4 -38 -25 -88 -90 -157 -59 -62 -121 -144 -121 -160 0 -10 -40 -86 -49 -93 -3
-3 -11 -14 -18 -25 -103 -169 -139 -222 -166 -249 -44 -43 -77 -85 -75 -94 1
-4 -4 -20 -10 -35 -7 -16 -12 -37 -12 -48 0 -11 -6 -22 -14 -25 -8 -3 -17 -13
-20 -22 -3 -9 -10 -24 -15 -32 -5 -8 -19 -40 -31 -70 -23 -60 -96 -186 -114
-198 -16 -10 -56 -93 -56 -117 0 -17 -2 -17 -10 -5 -5 8 -10 10 -10 4 0 -6
-12 -24 -26 -40 -22 -25 -24 -35 -18 -69 9 -55 6 -143 -7 -182 -17 -54 -20
-308 -3 -341 7 -15 11 -35 8 -44 -3 -10 -2 -23 2 -30 5 -7 9 -31 11 -53 6 -75
13 -103 31 -109 9 -4 35 -17 57 -30 84 -51 131 -22 145 88 4 36 4 93 0 128 -4
35 -6 66 -3 70 2 4 10 49 18 100 7 51 23 135 34 187 12 51 18 98 14 104 -4 6
-1 7 6 2 9 -5 12 -1 9 12 -4 23 22 103 34 103 4 0 8 11 8 24 0 13 7 29 15 36
8 7 15 24 15 38 0 14 6 33 13 41 8 9 20 32 27 51 8 19 21 42 30 50 8 8 22 29
30 45 7 17 24 44 36 60 12 17 35 63 52 103 17 39 36 77 41 84 6 7 24 29 41 49
16 20 30 43 30 50 0 8 9 20 20 27 11 7 20 17 20 23 0 6 11 25 24 42 13 18 29
47 37 65 8 17 17 32 21 32 5 0 8 8 8 18 0 9 18 37 40 61 21 24 38 49 37 55 -1
6 4 10 11 8 8 -1 11 1 8 6 -3 5 4 18 14 30 11 12 20 24 20 28 0 7 63 87 93
116 9 10 17 23 17 28 0 6 7 10 16 10 11 0 14 5 10 16 -5 12 -2 15 10 10 12 -5
15 -2 10 9 -3 9 1 18 10 22 13 5 13 7 2 14 -11 7 -11 9 1 9 7 0 11 6 8 14 -4
10 -1 13 7 10 14 -5 166 134 166 153 0 7 17 25 37 40 21 15 45 36 55 46 10 9
22 17 28 17 12 0 146 133 143 142 -2 4 6 5 17 3 13 -2 20 2 20 11 0 8 4 14 10
14 5 0 25 16 45 35 19 20 35 33 35 31 0 -3 23 16 50 43 28 27 50 47 50 44 0
-2 27 14 59 37 33 22 64 40 70 40 13 0 75 33 79 43 2 4 8 4 13 1 6 -3 21 2 35
11 13 9 40 17 58 19 44 3 106 44 98 65 -3 9 -15 32 -28 51 -12 20 -30 61 -39
91 -13 40 -26 61 -49 77 -40 27 -111 41 -151 29z"/>
<path d="M4210 13091 c-48 -7 -160 -58 -160 -73 0 -4 -8 -8 -18 -8 -21 0 -121
-79 -121 -97 -1 -6 -4 -13 -9 -15 -4 -1 -33 -37 -64 -78 -31 -41 -86 -102
-122 -135 -36 -33 -70 -72 -75 -87 -6 -16 -15 -28 -20 -28 -6 0 -11 -5 -11
-11 0 -13 -54 -80 -97 -121 -18 -17 -33 -37 -33 -44 0 -7 -8 -19 -18 -26 -10
-7 -24 -29 -32 -48 -7 -19 -24 -51 -37 -70 -13 -19 -23 -40 -23 -46 0 -7 -3
-14 -8 -16 -12 -5 -67 -81 -78 -108 -6 -14 -27 -59 -46 -100 -67 -139 -77
-165 -103 -245 -14 -44 -25 -84 -25 -88 0 -5 -15 -41 -34 -80 -19 -40 -40 -83
-46 -97 -5 -14 -24 -50 -40 -80 -17 -30 -34 -71 -39 -90 -5 -19 -21 -80 -36
-135 -15 -55 -36 -134 -47 -175 -13 -48 -22 -119 -24 -195 -3 -77 -10 -129
-19 -149 -8 -16 -15 -38 -15 -48 0 -11 -4 -27 -9 -36 -9 -18 -21 -170 -21
-257 1 -27 1 -113 1 -190 -1 -109 4 -154 19 -205 27 -94 42 -161 41 -192 0
-16 4 -28 9 -28 6 0 10 -10 10 -21 0 -48 25 -101 64 -137 39 -36 53 -40 107
-33 8 1 50 41 74 70 13 15 14 21 5 16 -12 -7 -13 -6 -3 6 13 16 13 23 -7 89
-7 25 -15 52 -18 60 -2 8 -6 34 -9 58 -3 23 -9 42 -15 42 -5 0 -7 4 -3 9 3 5
1 12 -5 16 -10 6 -11 14 -9 95 1 47 1 116 0 210 0 30 1 75 3 100 2 25 0 56 -5
69 -6 13 -6 28 -1 35 14 17 33 106 26 118 -4 5 -2 13 4 17 6 3 13 31 16 61 4
30 8 69 9 85 2 17 9 40 15 51 6 12 14 36 17 54 3 18 9 38 13 44 3 6 5 23 3 38
-1 15 2 36 8 47 6 11 12 31 13 45 1 15 6 26 11 26 4 0 5 5 2 10 -4 6 3 31 15
56 13 25 27 62 32 82 5 20 14 53 19 72 5 19 11 40 12 45 2 6 8 20 15 32 7 12
12 29 12 38 0 8 12 44 26 78 43 101 47 112 49 117 0 3 5 21 9 40 5 19 18 55
31 80 13 25 33 66 44 91 12 26 39 71 60 102 22 30 42 64 45 75 4 11 13 26 21
32 8 7 15 20 15 30 0 18 47 82 111 153 20 21 43 57 50 80 7 22 21 42 31 45 10
2 18 9 18 16 0 6 27 45 60 86 32 41 76 99 96 128 36 53 99 111 153 141 16 9
58 31 94 50 36 19 64 38 61 43 -3 4 2 5 10 2 14 -6 84 29 97 49 3 4 10 7 15 5
19 -6 94 54 126 101 16 23 16 28 2 49 -30 45 -64 115 -59 121 6 11 -38 62 -55
64 -8 2 -19 5 -25 9 -18 11 -109 16 -155 9z"/>
<path d="M8639 12906 c-2 -3 -17 -7 -32 -10 -15 -2 -35 -7 -45 -10 -9 -3 -34
-7 -54 -10 -21 -2 -41 -7 -46 -10 -5 -3 -31 -8 -58 -11 -27 -2 -72 -9 -100
-15 -28 -6 -55 -10 -60 -8 -5 1 -35 -6 -66 -15 -31 -10 -61 -17 -65 -16 -4 1
-15 0 -23 -3 -25 -9 -135 -28 -161 -28 -14 0 -29 -3 -32 -6 -4 -4 -26 -8 -49
-10 -24 -2 -50 -7 -58 -11 -8 -3 -24 -8 -34 -10 -46 -8 -142 -34 -161 -43 -11
-5 -42 -14 -70 -20 -27 -6 -68 -16 -90 -21 -22 -5 -47 -10 -55 -10 -8 -1 -42
-9 -75 -20 -33 -10 -87 -26 -120 -35 -33 -9 -64 -20 -70 -24 -5 -4 -50 -13
-100 -20 -94 -13 -175 -37 -175 -51 0 -5 -4 -9 -9 -9 -5 0 -32 -14 -58 -30
-27 -17 -58 -32 -68 -34 -39 -8 -80 -28 -135 -65 -30 -20 -75 -48 -100 -62
-25 -13 -48 -28 -52 -34 -4 -5 -8 -7 -8 -2 0 4 -26 -13 -57 -38 -32 -25 -63
-49 -68 -54 -26 -20 -69 -45 -79 -47 -23 -3 -76 -41 -68 -49 4 -5 1 -5 -6 -1
-12 7 -92 -61 -92 -78 0 -13 -73 -86 -92 -92 -11 -3 -17 -8 -14 -12 6 -5 -45
-32 -72 -38 -29 -6 -62 -36 -62 -56 0 -12 -3 -18 -6 -15 -8 8 -41 -28 -49 -52
-3 -9 -18 -25 -35 -34 -16 -10 -30 -21 -30 -25 0 -4 -20 -28 -44 -54 -23 -25
-46 -53 -49 -62 -4 -9 -13 -16 -22 -16 -8 0 -15 -6 -15 -14 0 -8 -28 -43 -62
-79 -80 -84 -141 -170 -195 -277 -24 -47 -53 -94 -65 -104 -21 -17 -21 -19 -3
-13 17 6 17 5 -3 -11 -13 -10 -29 -29 -37 -42 -31 -58 -54 -108 -65 -145 -7
-22 -23 -51 -35 -65 -25 -27 -65 -106 -65 -127 0 -7 -4 -13 -10 -13 -5 0 -10
-6 -10 -14 0 -8 -14 -19 -30 -25 -17 -5 -33 -17 -36 -25 -3 -8 -19 -18 -34
-21 -17 -4 -32 -15 -35 -26 -4 -11 -9 -18 -12 -16 -5 6 -99 -26 -110 -36 -3
-4 -18 -7 -32 -7 -38 -1 -103 -42 -128 -81 -13 -19 -27 -39 -33 -46 -32 -39
-54 -100 -54 -153 1 -62 26 -114 89 -183 29 -33 43 -40 92 -47 32 -4 62 -5 66
-3 5 3 17 -4 28 -16 11 -12 24 -21 29 -21 6 0 10 -8 10 -18 0 -40 69 -80 94
-54 4 4 11 7 16 7 7 0 48 42 108 110 10 11 31 44 46 74 27 53 76 115 76 96 0
-5 7 0 15 12 15 22 27 25 175 44 132 17 176 10 240 -38 30 -23 65 -52 77 -65
12 -12 35 -37 51 -55 16 -18 28 -34 25 -37 -2 -2 5 -7 16 -11 11 -3 23 -16 27
-27 11 -36 85 -108 110 -108 13 0 25 -4 28 -9 10 -15 80 -23 109 -12 15 6 44
11 64 13 21 1 49 8 63 17 46 27 110 95 110 116 0 12 5 26 11 32 6 6 11 44 11
85 1 64 -3 83 -28 129 -16 30 -31 56 -35 59 -3 3 -17 24 -31 48 -30 51 -75 84
-144 105 -124 39 -211 79 -232 109 -7 10 -20 18 -28 18 -8 0 -14 5 -14 10 0 6
-7 10 -15 10 -9 0 -24 13 -33 30 -21 37 -29 40 -121 51 -40 4 -76 10 -78 13
-3 2 0 12 5 22 6 11 6 25 0 39 -7 16 -3 33 17 73 14 28 30 54 36 57 5 4 28 32
51 63 23 31 50 66 59 77 10 11 32 35 49 53 16 19 30 38 30 43 0 5 5 9 10 9 6
0 10 7 10 16 0 8 5 12 10 9 6 -3 10 -2 10 3 0 6 25 35 55 66 30 30 55 60 55
66 0 5 3 9 8 8 7 -3 55 33 136 102 22 20 60 48 84 63 23 15 55 41 71 57 15 17
33 30 40 30 6 0 23 14 38 31 16 17 46 44 68 59 22 16 51 39 65 52 14 13 43 29
65 36 38 13 121 49 175 77 14 7 40 16 58 20 18 3 30 10 28 14 -3 4 8 5 25 3
18 -3 29 0 29 8 0 7 7 10 15 6 8 -3 15 -1 15 5 0 5 11 7 25 3 15 -4 25 -2 25
5 0 6 17 18 37 26 21 9 45 23 54 31 20 18 135 74 152 74 13 0 31 9 110 53 26
15 47 24 47 20 0 -3 9 5 21 18 11 13 27 23 34 21 7 -1 18 5 25 13 7 8 20 15
30 15 10 0 37 7 61 16 24 9 66 17 92 19 26 1 51 5 54 9 4 3 17 6 30 6 13 0 23
5 23 10 0 6 6 10 13 10 6 0 35 12 62 26 44 22 128 48 190 59 20 3 94 21 130
31 11 3 27 7 35 9 8 1 22 5 30 8 38 14 136 24 153 15 10 -5 86 -9 170 -8 191
1 329 -4 344 -13 6 -4 13 -2 15 4 2 6 57 10 158 10 160 -1 195 -3 206 -14 13
-13 127 6 168 28 24 13 58 26 76 30 39 9 127 96 136 135 3 14 9 34 13 45 4 11
7 47 6 81 -1 46 -7 68 -25 92 -13 18 -27 32 -32 32 -4 0 -8 6 -8 13 0 6 -15
19 -32 26 -18 8 -39 22 -45 32 -8 10 -34 19 -69 24 -70 8 -91 12 -168 30 -46
11 -81 12 -132 6 -83 -10 -230 -6 -268 9 -27 10 -138 14 -147 6z"/>
<path d="M10257 10574 c-1 -2 -19 -5 -37 -8 -19 -3 -89 -23 -155 -44 -66 -22
-127 -42 -135 -43 -8 -2 -21 -10 -28 -17 -8 -7 -26 -12 -40 -11 -15 1 -47 -6
-72 -14 -28 -10 -77 -17 -127 -17 -75 0 -87 -3 -135 -32 -97 -59 -131 -97
-178 -198 -26 -55 -22 -81 28 -175 31 -57 42 -71 70 -77 17 -5 32 -12 32 -17
0 -4 17 -8 38 -8 56 -1 185 -12 189 -17 2 -2 21 1 41 6 132 34 134 34 337 41
66 2 134 0 150 -5 17 -5 73 -20 125 -34 107 -28 159 -49 166 -69 3 -8 19 -17
35 -20 16 -4 29 -13 29 -20 0 -18 50 -65 68 -65 34 0 132 -59 179 -107 12 -13
26 -23 31 -23 4 0 17 -9 29 -19 41 -38 211 -53 244 -21 57 56 78 125 49 163
-11 13 -16 27 -12 31 3 4 -7 19 -24 34 -16 15 -36 42 -43 60 -7 17 -17 32 -22
32 -5 0 -9 7 -9 15 0 8 -6 14 -12 12 -8 -1 -12 7 -10 21 2 13 -5 33 -15 44
-10 11 -16 22 -13 23 8 5 -74 99 -170 197 -125 127 -160 167 -160 182 0 7 -24
32 -53 54 -30 22 -61 48 -70 57 -12 12 -17 13 -17 3 0 -9 -3 -9 -8 -2 -11 17
-65 42 -80 37 -7 -3 -28 4 -47 16 -19 11 -49 23 -67 26 -49 8 -97 13 -101 9z"/>
<path d="M5240 8922 c-115 -25 -174 -45 -206 -69 -35 -26 -63 -94 -47 -115 11
-16 11 -108 0 -126 -12 -18 -14 -121 -3 -119 6 1 15 -18 21 -43 15 -65 44
-119 74 -138 14 -9 32 -25 39 -34 17 -23 64 -47 99 -52 16 -2 48 -6 73 -10 39
-6 50 -3 86 21 56 38 114 90 114 103 0 5 6 10 13 10 7 0 19 16 27 35 8 19 17
35 20 35 4 0 18 21 31 48 13 26 29 50 36 54 6 5 9 17 6 29 -3 12 0 24 6 29 9
5 10 13 3 26 -5 11 -15 33 -22 49 -24 59 -43 90 -66 111 -13 12 -24 26 -24 33
0 6 -18 23 -40 37 -22 15 -40 30 -40 35 0 10 -82 49 -102 49 -8 0 -18 4 -23 8
-6 5 -39 2 -75 -6z"/>
<path d="M9740 8720 c-76 -21 -82 -26 -135 -104 -31 -47 -45 -77 -42 -93 2
-14 0 -20 -6 -16 -7 4 -8 -1 -3 -12 4 -10 3 -21 -2 -24 -6 -3 -12 -34 -15 -69
-4 -34 -9 -67 -12 -72 -7 -12 54 -187 72 -205 7 -8 13 -20 13 -29 0 -21 45
-49 115 -71 85 -26 132 -28 209 -11 37 9 78 16 90 16 24 0 111 44 122 61 3 5
9 7 14 4 4 -3 6 4 3 15 -3 11 -1 20 4 20 17 0 48 84 50 135 4 87 -7 175 -22
175 -8 0 -17 10 -21 23 -3 12 -11 28 -17 36 -6 7 -12 19 -13 27 -1 7 -19 34
-39 59 -57 69 -147 119 -235 131 -27 4 -53 6 -56 4 -4 -1 -10 2 -13 7 -3 5
-31 2 -61 -7z"/>
<path d="M2943 6713 c-26 -5 -103 -79 -103 -99 0 -8 -5 -14 -10 -14 -6 0 -15
-12 -20 -27 -6 -16 -14 -37 -19 -48 -14 -31 -22 -65 -27 -120 -4 -48 -2 -53
47 -118 28 -37 54 -65 59 -62 4 3 10 -2 14 -10 3 -8 12 -15 20 -15 7 0 17 -7
20 -16 3 -9 13 -14 21 -10 8 3 17 1 20 -3 6 -11 125 -17 170 -9 27 5 57 28 71
53 6 11 16 20 21 20 5 0 17 8 26 17 10 9 26 20 37 23 11 3 20 13 20 20 0 8 12
26 27 40 19 17 23 25 13 25 -12 0 -13 2 -1 9 7 5 15 29 18 54 5 39 2 49 -20
71 -14 13 -23 27 -21 29 3 2 -2 10 -11 17 -8 7 -15 20 -15 29 0 9 -9 22 -20
29 -11 7 -20 17 -20 23 0 13 -30 43 -44 44 -6 1 -18 4 -26 7 -119 46 -174 55
-247 41z"/>
<path d="M3201 5819 c-1 -11 -8 -15 -24 -12 -15 3 -38 -5 -62 -21 -21 -14 -42
-26 -46 -26 -5 0 -18 -8 -29 -17 -11 -10 -26 -18 -33 -18 -21 0 -25 -67 -5
-96 9 -14 15 -29 12 -32 -4 -3 1 -14 10 -23 10 -9 15 -23 12 -30 -9 -23 22
-81 54 -104 30 -21 41 -22 183 -19 9 0 17 3 17 7 0 4 15 16 34 26 18 10 39 29
46 42 8 13 17 24 22 24 4 0 8 9 8 20 0 10 7 23 15 28 28 15 27 57 -3 94 -65
82 -156 149 -182 133 -5 -3 -14 4 -19 17 -6 15 -10 17 -10 7z"/>
<path d="M4116 5363 c-4 -4 -45 -10 -83 -12 -13 0 -23 -7 -23 -13 0 -8 -17
-14 -43 -15 -23 -2 -47 -9 -53 -18 -6 -8 -16 -15 -22 -15 -6 0 -14 -9 -17 -20
-3 -11 -11 -20 -16 -20 -6 0 -7 -5 -4 -11 4 -5 -2 -18 -12 -27 -20 -19 -44
-89 -46 -139 -2 -31 -3 -32 -41 -28 -22 2 -62 16 -89 30 -53 27 -142 42 -152
25 -4 -6 -10 -8 -15 -5 -5 3 -18 2 -28 -4 -10 -5 -45 -13 -77 -16 -76 -9 -118
-38 -113 -77 3 -16 1 -28 -3 -28 -11 0 -10 -155 0 -183 15 -37 73 -90 105 -95
11 -2 35 -12 55 -23 30 -16 48 -18 110 -13 64 5 81 11 140 48 98 64 160 141
148 185 -3 12 -3 21 0 21 3 0 35 -32 72 -71 59 -63 71 -71 110 -75 45 -4 150
-46 152 -61 1 -4 2 -44 3 -88 1 -69 6 -91 33 -145 58 -119 64 -137 59 -184 -3
-27 0 -46 5 -46 6 0 -1 -15 -15 -32 -27 -37 -44 -102 -27 -112 5 -4 8 -12 5
-19 -5 -14 7 -40 41 -92 27 -41 57 -65 73 -60 7 3 10 0 7 -5 -3 -6 3 -10 14
-10 13 0 21 -7 21 -17 0 -15 2 -16 10 -3 7 12 12 12 22 2 23 -23 138 -7 138
19 0 5 6 6 14 3 18 -7 86 24 86 40 0 6 14 17 31 25 19 8 28 18 25 28 -3 8 -2
11 3 8 6 -3 8 24 5 67 -3 40 -10 75 -15 76 -5 2 -9 11 -9 21 0 9 -10 31 -23
48 -16 22 -22 42 -20 65 2 18 4 41 4 52 0 10 2 16 5 13 3 -2 19 9 35 24 17 16
35 27 39 24 11 -7 22 24 13 37 -3 7 -1 8 5 4 11 -7 18 23 12 49 -1 6 -3 37 -5
70 -2 58 -6 76 -26 120 -5 11 -11 31 -14 44 -2 14 -10 28 -17 33 -7 4 -9 8 -3
8 5 0 4 5 -2 11 -7 7 -8 22 -2 42 10 38 14 150 7 192 -3 16 -10 31 -17 33 -6
2 -11 9 -11 15 0 14 -69 120 -104 160 -14 16 -26 32 -28 36 -2 4 -29 19 -60
35 -38 19 -64 27 -81 22 -14 -3 -27 -2 -29 3 -2 5 -35 11 -75 14 -39 2 -77 8
-84 13 -15 9 -97 23 -103 17z"/>
<path d="M10234 4592 c3 -5 -10 -15 -29 -22 -19 -8 -35 -17 -35 -22 0 -4 -7
-8 -15 -8 -8 0 -15 -4 -15 -10 0 -5 -3 -9 -7 -8 -18 3 -45 -17 -59 -45 -14
-26 -14 -29 -1 -24 13 5 13 2 0 -23 -15 -31 -25 -180 -11 -180 4 0 8 -7 8 -15
0 -8 5 -15 10 -15 13 0 7 -67 -8 -96 -5 -10 -19 -38 -32 -62 -25 -49 -40 -185
-21 -196 6 -4 11 -16 11 -26 0 -26 40 -91 51 -84 5 3 9 -3 9 -13 0 -20 44 -76
53 -67 3 3 14 1 24 -6 17 -11 17 -11 0 -6 -11 3 -15 2 -12 -4 3 -6 15 -10 25
-10 10 0 23 -7 28 -16 7 -13 20 -16 61 -12 28 3 53 2 56 -2 4 -7 82 -5 132 5
45 8 80 28 76 42 -2 6 5 17 16 23 23 12 29 35 7 27 -12 -5 -12 -1 0 29 10 25
12 40 4 54 -5 10 -7 25 -4 34 3 8 -1 29 -10 47 -9 17 -13 35 -11 39 3 5 -1 28
-9 52 -30 88 -30 110 0 146 16 18 30 41 32 50 9 39 1 160 -12 197 -8 22 -15
36 -16 30 0 -5 -10 10 -22 35 -21 42 -63 89 -81 90 -4 0 -20 11 -34 24 -29 27
-88 42 -125 31 -16 -4 -19 -3 -10 3 11 7 10 10 -3 16 -22 8 -27 8 -21 -2z"/>
<path d="M12135 4501 c-11 -5 -23 -7 -27 -4 -11 6 -128 -118 -128 -136 -1 -9
-8 -34 -16 -56 -9 -22 -17 -60 -18 -84 -3 -45 0 -51 55 -109 14 -15 30 -39 37
-54 6 -16 16 -28 21 -28 13 0 61 -48 61 -60 0 -6 4 -10 8 -10 17 0 82 -72 76
-82 -5 -7 -1 -9 9 -5 11 4 17 1 17 -9 0 -8 7 -17 15 -20 8 -3 17 -14 20 -25 4
-10 12 -19 20 -19 7 0 28 -15 46 -34 21 -23 41 -34 58 -34 14 0 38 -4 52 -10
29 -11 132 -5 137 9 2 5 8 6 13 3 6 -3 15 -2 22 3 7 5 23 10 37 11 14 1 26 6
28 12 2 5 7 8 12 5 13 -8 60 16 60 31 0 6 7 14 15 18 8 3 15 12 15 21 0 8 4
15 10 15 5 0 9 10 9 23 -1 12 4 36 11 52 13 32 17 101 7 112 -4 3 -7 16 -7 28
0 13 -7 28 -15 35 -8 7 -15 21 -15 31 0 11 -4 19 -10 19 -5 0 -10 4 -10 10 0
14 -42 60 -55 60 -6 0 -37 18 -70 39 -42 28 -62 36 -67 28 -5 -8 -8 -4 -8 9 0
25 -43 74 -65 74 -8 0 -14 3 -14 8 6 37 -29 60 -131 86 -30 8 -68 22 -85 30
-32 17 -97 20 -130 7z"/>
<path d="M11215 4372 c-16 -10 -42 -29 -57 -44 -30 -30 -30 -30 -14 -218 4
-49 -14 -87 -35 -74 -7 4 -10 3 -6 -4 5 -6 -9 -13 -35 -18 -60 -11 -61 -11
-85 -12 -13 -1 -23 -7 -23 -12 0 -6 -15 -26 -34 -45 -19 -18 -37 -48 -41 -64
-4 -17 -11 -31 -16 -31 -28 0 22 -166 53 -175 10 -4 26 -17 34 -31 9 -13 21
-24 26 -24 6 0 37 -18 69 -39 67 -45 155 -69 188 -52 11 6 30 11 43 11 22 0
83 33 76 41 -5 7 27 37 35 32 7 -4 9 6 13 87 2 44 -17 115 -42 155 -7 11 -12
28 -10 37 2 18 42 57 60 59 6 1 18 3 26 3 8 1 33 7 55 13 22 6 52 14 68 17 15
4 27 13 27 21 0 9 6 12 15 8 9 -3 15 -2 14 3 -4 25 3 44 16 44 14 0 22 20 27
65 4 29 -34 135 -47 135 -6 0 -22 11 -34 24 -12 13 -41 32 -64 42 -23 10 -47
25 -54 34 -7 8 -13 12 -13 8 0 -4 -14 -3 -32 2 -20 6 -36 6 -44 0 -8 -7 -13
-6 -18 5 -8 21 -101 19 -141 -3z"/>
<path d="M10308 3283 c-10 -2 -18 -10 -18 -16 0 -9 -2 -9 -8 -1 -9 15 -82 -15
-82 -33 0 -7 -4 -13 -10 -13 -15 0 -37 -50 -45 -101 -5 -35 -3 -49 9 -62 9 -8
13 -22 10 -30 -3 -8 4 -32 15 -53 12 -21 21 -44 21 -49 0 -15 58 -57 69 -51 5
3 11 -1 15 -9 3 -8 15 -15 26 -15 11 0 20 -7 20 -15 0 -8 5 -15 10 -15 6 0 10
-15 10 -32 0 -18 6 -44 13 -58 8 -16 10 -31 4 -40 -5 -9 -4 -26 4 -45 7 -16
13 -34 14 -40 1 -5 11 -29 23 -52 19 -37 38 -50 57 -40 2 1 10 -6 17 -16 12
-15 44 -28 73 -29 36 0 121 15 123 23 2 5 10 9 18 9 8 0 14 5 14 11 0 7 8 17
17 24 24 17 30 170 7 179 -8 3 -12 10 -9 16 6 10 -36 68 -52 73 -4 1 -6 14 -4
30 1 15 -2 27 -7 27 -15 0 -12 64 5 82 9 10 13 18 8 18 -4 0 -2 7 5 14 17 22
-24 142 -52 149 -11 3 -17 10 -14 16 9 15 -12 52 -45 80 -16 13 -29 29 -29 36
0 7 -15 16 -32 20 -40 9 -176 14 -200 8z"/>
</g>
</svg>
